<?xml version="1.0" encoding="UTF-8"?>
<svg version="1.1" xmlns="http://www.w3.org/2000/svg" width="500" height="500">
<path d="M0 0 C6.16635385 2.34391377 11.78312032 5.50321855 17.41113281 8.91650391 C18.42175781 9.50947266 19.43238281 10.10244141 20.47363281 10.71337891 C34.49717694 19.44079733 45.90053718 31.52298523 55.41113281 44.91650391 C55.94390335 45.62058884 56.47667389 46.32467377 57.02558899 47.0500946 C58.95321091 51.03795361 58.80833431 54.46472793 58.75170898 58.83764648 C58.7523661 60.17010406 58.7523661 60.17010406 58.7530365 61.52947998 C58.75095146 64.45689093 58.72763372 67.38372461 58.70410156 70.31103516 C58.6985046 72.34412829 58.69423497 74.37722547 58.6912384 76.4103241 C58.67979757 81.75498676 58.65033677 87.0994039 58.61712646 92.44396973 C58.58640927 97.90027546 58.57272953 103.35662096 58.55761719 108.81298828 C58.52546648 119.51426788 58.47427919 130.21536546 58.41113281 140.91650391 C57.42113281 140.58650391 56.43113281 140.25650391 55.41113281 139.91650391 C55.41113281 139.25650391 55.41113281 138.59650391 55.41113281 137.91650391 C54.75113281 137.91650391 54.09113281 137.91650391 53.41113281 137.91650391 C53.41113281 137.25650391 53.41113281 136.59650391 53.41113281 135.91650391 C52.75113281 135.91650391 52.09113281 135.91650391 51.41113281 135.91650391 C50.03613281 134.48291016 50.03613281 134.48291016 48.41113281 132.47900391 C30.684089 111.80956142 3.93490879 98.04900617 -23.28417969 95.68212891 C-24.97548246 95.5539252 -26.66830755 95.4434377 -28.36230469 95.35791016 C-31.36169611 94.76329396 -32.48734457 94.19073186 -34.58886719 91.91650391 C-35.19489573 88.87399255 -35.09311236 85.8557927 -35.04296875 82.76342773 C-35.04355286 81.82664688 -35.04413696 80.88986603 -35.04473877 79.92469788 C-35.04194889 76.8239352 -35.01081385 73.72413019 -34.97949219 70.62353516 C-34.97203302 68.47548447 -34.96633856 66.32742698 -34.96234131 64.17936707 C-34.9470595 58.52223972 -34.90775545 52.86552235 -34.86352539 47.20855713 C-34.82262775 41.43743435 -34.80434205 35.66624541 -34.78417969 29.89501953 C-34.74126391 18.5686674 -34.67298157 7.24261973 -34.58886719 -4.08349609 C-24.53752947 -9.47689682 -10.03858058 -3.50286501 0 0 Z " fill="#047EC8" transform="translate(188.5888671875,159.08349609375)"/>
<path d="M0 0 C2.92435512 3.21486305 2.412943 6.81709962 2.37414551 10.94700623 C2.38115479 11.85785477 2.38816406 12.76870331 2.39538574 13.70715332 C2.4130176 16.72369204 2.40132354 19.73929554 2.38781738 22.75584412 C2.39051104 24.84947897 2.39439239 26.9431126 2.39941406 29.03674316 C2.40531635 33.42752477 2.39672338 37.81798114 2.37805176 42.20872498 C2.35527605 47.83930611 2.36837222 53.46912405 2.39234161 59.09967709 C2.40679175 63.42424271 2.40219691 67.74862725 2.39183044 72.07319832 C2.38916027 74.14925285 2.3924431 76.22532378 2.40174866 78.30135918 C2.4118996 81.20321596 2.39643266 84.10383542 2.37414551 87.00559998 C2.38224243 87.86547516 2.39033936 88.72535034 2.39868164 89.61128235 C2.31603372 95.4152694 2.31603372 95.4152694 0.00488281 98.56274414 C-2.82518099 100.51011154 -4.98084487 100.72355034 -8.39343262 101.04100037 C-29.72574391 103.60264437 -50.171243 110.67052881 -66.97546387 124.34568787 C-69.14343262 126.04100037 -69.14343262 126.04100037 -71.14343262 126.04100037 C-71.14343262 126.70100037 -71.14343262 127.36100037 -71.14343262 128.04100037 C-72.71765137 129.55662537 -72.71765137 129.55662537 -74.83093262 131.29100037 C-77.49692395 133.54175765 -79.85353353 135.74149582 -82.01843262 138.47850037 C-82.71968262 139.32412537 -83.42093262 140.16975037 -84.14343262 141.04100037 C-84.80343262 141.04100037 -85.46343262 141.04100037 -86.14343262 141.04100037 C-87.13343262 143.02100037 -87.13343262 143.02100037 -88.14343262 145.04100037 C-89.13343262 145.04100037 -90.12343262 145.04100037 -91.14343262 145.04100037 C-91.21297617 133.54050481 -91.26626612 122.04005938 -91.29886913 110.53939629 C-91.3145178 105.19903505 -91.33574167 99.8588178 -91.36975098 94.51853943 C-91.40237264 89.36383272 -91.42029165 84.20926441 -91.42806435 79.05446243 C-91.43360279 77.08889208 -91.44441803 75.1233292 -91.46062279 73.15781784 C-91.48243425 70.40240421 -91.48539797 67.64756081 -91.48400879 64.89207458 C-91.49479462 64.08143051 -91.50558044 63.27078644 -91.51669312 62.43557739 C-91.48222386 56.1075013 -89.61522082 51.64110533 -85.69030762 46.63865662 C-85.23905518 46.06131775 -84.78780273 45.48397888 -84.32287598 44.8891449 C-83.85115967 44.2998822 -83.37944336 43.71061951 -82.89343262 43.10350037 C-82.16362183 42.18480164 -82.16362183 42.18480164 -81.41906738 41.24754333 C-77.91003626 36.88056833 -74.3291862 32.78146102 -70.14343262 29.04100037 C-69.48343262 29.04100037 -68.82343262 29.04100037 -68.14343262 29.04100037 C-68.14343262 28.38100037 -68.14343262 27.72100037 -68.14343262 27.04100037 C-65.88813141 25.20067458 -63.63163732 23.48294569 -61.26843262 21.79100037 C-60.58385986 21.2959198 -59.89928711 20.80083923 -59.19396973 20.29075623 C-54.0126299 16.58023264 -48.7580746 13.06841532 -43.14343262 10.04100037 C-42.57938721 9.73235046 -42.0153418 9.42370056 -41.4342041 9.10569763 C-36.15729585 6.32597455 -30.79832995 4.51227804 -25.08093262 2.85350037 C-24.22177246 2.59375427 -23.3626123 2.33400818 -22.47741699 2.06639099 C-6.16230977 -2.75709755 -6.16230977 -2.75709755 0 0 Z " fill="#017CC8" transform="translate(344.1434326171875,153.95899963378906)"/>
<path d="M0 0 C1.8871875 0.0309375 1.8871875 0.0309375 3.8125 0.0625 C4.81954338 4.21536864 4.91573318 8.07747808 4.87841797 12.34375 C4.87374512 13.05821289 4.86907227 13.77267578 4.86425781 14.50878906 C4.85379101 16.05348252 4.84114032 17.59816241 4.82653427 19.14282227 C4.80444501 21.58935783 4.79040962 24.0358152 4.77883911 26.48242188 C4.74530379 33.43630633 4.70356771 40.39006072 4.64111328 47.34375 C4.60343401 51.60294262 4.58043447 55.86200341 4.56680679 60.12133789 C4.55876263 61.74165532 4.54516796 63.3619552 4.52587509 64.98217773 C4.49935001 67.24870035 4.49149917 69.51459125 4.48779297 71.78125 C4.47811493 73.06966797 4.46843689 74.35808594 4.45846558 75.68554688 C4.83986827 79.3235519 5.58468144 81.19050737 7.8125 84.0625 C12.39929889 86.18052184 17.35163989 86.7069006 22.3125 87.4375 C33.3621518 89.18271693 43.96328902 91.54694185 53.8125 97.0625 C54.1425 96.4025 54.4725 95.7425 54.8125 95.0625 C55.1425 96.0525 55.4725 97.0425 55.8125 98.0625 C57.71428785 98.66311233 57.71428785 98.66311233 59.8125 99.0625 C61.2975 100.0525 61.2975 100.0525 62.8125 101.0625 C62.8125 101.7225 62.8125 102.3825 62.8125 103.0625 C63.37453125 103.16691406 63.9365625 103.27132812 64.515625 103.37890625 C67.23630471 104.18863235 69.20507807 105.42453338 71.5625 107 C72.36171875 107.52464844 73.1609375 108.04929687 73.984375 108.58984375 C74.58765625 109.07582031 75.1909375 109.56179688 75.8125 110.0625 C75.8125 110.7225 75.8125 111.3825 75.8125 112.0625 C76.34875 112.289375 76.885 112.51625 77.4375 112.75 C83.45845596 116.0773704 87.55751378 120.87989564 91.6875 126.25 C92.18507813 126.87841797 92.68265625 127.50683594 93.1953125 128.15429688 C96.8125 132.79999785 96.8125 132.79999785 96.8125 135.0625 C97.4725 135.3925 98.1325 135.7225 98.8125 136.0625 C97.1625 136.3925 95.5125 136.7225 93.8125 137.0625 C93.8125 136.4025 93.8125 135.7425 93.8125 135.0625 C93.10351562 134.80726563 92.39453125 134.55203125 91.6640625 134.2890625 C88.56823114 132.95743093 85.99666396 131.29792257 83.1875 129.4375 C59.51861408 114.46422198 30.37891752 108.53115104 2.65087891 108.70410156 C1.82765137 108.69088867 1.00442383 108.67767578 0.15625 108.6640625 C-0.56369141 108.66744629 -1.28363281 108.67083008 -2.02539062 108.67431641 C-5.54776732 107.67758244 -6.94106493 105.92603801 -9.1875 103.0625 C-9.91040123 99.85871984 -9.84062786 96.72737575 -9.78686523 93.45458984 C-9.79080795 92.4930751 -9.79475067 91.53156036 -9.79881287 90.54090881 C-9.80551705 87.3678857 -9.77637563 84.19630623 -9.74609375 81.0234375 C-9.74184339 78.81816894 -9.73951505 76.6128959 -9.73902893 74.40762329 C-9.73286492 69.78912034 -9.71016837 65.17110265 -9.67456055 60.55273438 C-9.62923535 54.62633728 -9.61453178 48.7003791 -9.61082363 42.77382469 C-9.60640006 38.22199152 -9.59110591 33.67025087 -9.5719471 29.11845779 C-9.56305553 26.93273303 -9.55633009 24.74699836 -9.55178642 22.56126022 C-9.54276593 19.51121073 -9.52039541 16.46156239 -9.49389648 13.41162109 C-9.49323181 12.50453903 -9.49256714 11.59745697 -9.49188232 10.66288757 C-9.4819072 9.83298813 -9.47193207 9.00308868 -9.46165466 8.14804077 C-9.45700416 7.4272402 -9.45235365 6.70643963 -9.44756222 5.96379662 C-9.1875 4.0625 -9.1875 4.0625 -7.1875 1.0625 C-4.43671116 0.14557039 -2.82801087 -0.04636083 0 0 Z " fill="#095390" transform="translate(146.1875,170.9375)"/>
<path d="M0 0 C8 0 8 0 11 1 C13.04195021 4.06292531 13.25157671 4.68083609 13.26742554 8.13023376 C13.27595551 8.96999252 13.28448547 9.80975128 13.29327393 10.67495728 C13.29236755 11.59296112 13.29146118 12.51096497 13.29052734 13.45678711 C13.29724457 14.42615707 13.30396179 15.39552704 13.31088257 16.39427185 C13.32991305 19.60534765 13.3337892 22.81621504 13.3359375 26.02734375 C13.34236146 28.25549914 13.34908951 30.48365366 13.35610962 32.71180725 C13.36809471 37.38495846 13.37178913 42.05803567 13.37060547 46.73120117 C13.37040211 52.72491866 13.3977167 58.7181629 13.43214989 64.71176815 C13.45436502 69.31423633 13.45844468 73.9165896 13.45738602 78.51910591 C13.45974963 80.72914831 13.46861563 82.93919351 13.48405075 85.14918327 C13.50360329 88.23773426 13.49791488 91.32525143 13.48583984 94.41381836 C13.49707886 95.32979797 13.50831787 96.24577759 13.51989746 97.18951416 C13.45828699 103.3775945 13.45828699 103.3775945 11.10914612 106.56799316 C8.62824493 108.25240347 7.29649549 108.49708003 4.31640625 108.50390625 C3.39947998 108.5203418 2.48255371 108.53677734 1.5378418 108.55371094 C0.06504761 108.55806152 0.06504761 108.55806152 -1.4375 108.5625 C-31.4355025 109.29144554 -60.25382115 116.12239969 -85.27734375 133.2421875 C-88 135 -88 135 -90 135 C-90 135.66 -90 136.32 -90 137 C-91.65 136.67 -93.3 136.34 -95 136 C-93.02138766 133.31688175 -91.01666394 130.65463193 -89 128 C-88.04287109 126.73929688 -88.04287109 126.73929688 -87.06640625 125.453125 C-83.07090795 120.31271783 -79.03783355 116.11251718 -74 112 C-73.67 111.34 -73.34 110.68 -73 110 C-71.26980863 108.98800128 -69.53660345 107.98010863 -67.77734375 107.01953125 C-65.85747533 105.97327588 -65.85747533 105.97327588 -63.75 104.25 C-62 103 -62 103 -59 103 C-59 102.34 -59 101.68 -59 101 C-56.35261084 99.5393715 -55.10551666 99 -52 99 C-51.505 97.515 -51.505 97.515 -51 96 C-49.17333984 95.3918457 -49.17333984 95.3918457 -47 95 C-45.00242026 94.32793642 -43.00491933 93.65563643 -41.00805664 92.98144531 C-31.83857008 89.92651546 -22.75507549 87.82111009 -13.21142578 86.29370117 C-11.88667236 86.07870972 -11.88667236 86.07870972 -10.53515625 85.859375 C-9.755354 85.74045898 -8.97555176 85.62154297 -8.17211914 85.49902344 C-5.87744663 84.97184454 -4.05566448 84.13323219 -2 83 C-2 82.01 -2 81.02 -2 80 C-1.34 80 -0.68 80 0 80 C0 53.6 0 27.2 0 0 Z " fill="#0A528D" transform="translate(350,171)"/>
<path d="M0 0 C1.09957031 0.24492188 2.19914062 0.48984375 3.33203125 0.7421875 C13.85514886 3.41135089 23.95558257 7.97038838 33 14 C33 14.66 33 15.32 33 16 C33.57492187 16.09539062 34.14984375 16.19078125 34.7421875 16.2890625 C37.49799767 17.15680895 38.98507128 18.44662317 41.125 20.375 C42.14980469 21.28378906 42.14980469 21.28378906 43.1953125 22.2109375 C45.7297648 24.72344649 46.9436448 26.33782641 47.25 29.9375 C47.00494322 32.9394456 46.67351315 34.53377009 45 37 C41.877998 39.08133467 41.06733011 39.2737822 37.5 39.25 C36.33984375 39.25773437 36.33984375 39.25773437 35.15625 39.265625 C33 39 33 39 30 37 C30 36.34 30 35.68 30 35 C28.9171875 34.60748047 28.9171875 34.60748047 27.8125 34.20703125 C24.92007769 32.96570001 22.59038186 31.46838753 20 29.6875 C2.49937743 18.44878244 -20.52575471 14.89182096 -40.875 19.1875 C-42.92831774 19.75079956 -44.97087524 20.35496291 -47 21 C-48.05316406 21.32871094 -49.10632813 21.65742187 -50.19140625 21.99609375 C-59.85539392 25.35697514 -68.84157398 30.57959022 -76.62109375 37.24609375 C-79.87631721 39.64608609 -81.99267099 39.58097288 -85.91015625 39.37890625 C-88 39 -88 39 -90.5 37.4375 C-92.53026534 34.13831882 -93 31.87929749 -93 28 C-90.21794534 21.46217156 -83.87000529 17.67108267 -78 14 C-77.34 14 -76.68 14 -76 14 C-76 13.34 -76 12.68 -76 12 C-64.30973388 5.96776281 -52.85782984 1.80554035 -40 -1 C-38.78715332 -1.27046143 -38.78715332 -1.27046143 -37.54980469 -1.54638672 C-25.67531602 -3.65887235 -11.6763087 -2.65578786 0 0 Z " fill="#F88E3F" transform="translate(273,94)"/>
<path d="M0 0 C6.72860607 5.23548722 6.72860607 5.23548722 9.24609375 9.01171875 C9.57871623 12.92003294 9.47637936 15.72498207 7.24609375 19.01171875 C3.53747533 21.48413103 0.54670169 21.5609123 -3.75390625 21.01171875 C-6.60938667 19.68358832 -8.55790248 18.19042807 -10.87890625 16.07421875 C-20.25885114 9.34512785 -34.36261519 6.7107635 -45.75390625 8.01171875 C-55.53505543 10.02609555 -64.37622136 12.7571298 -72.50390625 18.69921875 C-76.54025755 21.57123794 -76.54025755 21.57123794 -79.75390625 22.01171875 C-86.24644356 19.77291278 -86.24644356 19.77291278 -88.75390625 16.01171875 C-89.20551915 9.6891381 -89.20551915 9.6891381 -86.75390625 6.01171875 C-86.09390625 6.01171875 -85.43390625 6.01171875 -84.75390625 6.01171875 C-84.75390625 5.35171875 -84.75390625 4.69171875 -84.75390625 4.01171875 C-61.14302745 -15.93193845 -25.2874567 -18.25718505 0 0 Z " fill="#F78F41" transform="translate(289.75390625,134.98828125)"/>
<path d="M0 0 C1.27677138 3.83031413 0.8624174 7.23497484 0.5625 11.1875 C0.376875 13.765625 0.19125 16.34375 0 19 C5.61 19 11.22 19 17 19 C16.94779297 16.97746094 16.94779297 16.97746094 16.89453125 14.9140625 C16.86639814 13.15105409 16.83909747 11.38803225 16.8125 9.625 C16.78736328 8.73554688 16.76222656 7.84609375 16.73632812 6.9296875 C16.72666016 6.07890625 16.71699219 5.228125 16.70703125 4.3515625 C16.6913208 3.56604004 16.67561035 2.78051758 16.65942383 1.97119141 C16.77181396 1.32069824 16.8842041 0.67020508 17 0 C20.66865241 -2.44576827 22.67200343 -2.23607254 27 -2 C27.66 -1.67 28.32 -1.34 29 -1 C29 15.83 29 32.66 29 50 C25.37 50 21.74 50 18 50 C17 49 17 49 16.88647461 47.05053711 C16.89171143 46.2178833 16.89694824 45.38522949 16.90234375 44.52734375 C16.90556641 43.62822266 16.90878906 42.72910156 16.91210938 41.80273438 C16.92048828 40.85720703 16.92886719 39.91167969 16.9375 38.9375 C16.94201172 37.98810547 16.94652344 37.03871094 16.95117188 36.06054688 C16.9629989 33.70696935 16.97947975 31.35351523 17 29 C14.54126232 29.14058476 12.08314825 29.28722999 9.625 29.4375 C8.57699219 29.49647461 8.57699219 29.49647461 7.5078125 29.55664062 C3.62639508 29.74280134 3.62639508 29.74280134 0 31 C0.09539062 31.61746094 0.19078125 32.23492187 0.2890625 32.87109375 C1.09721067 39.04496988 0.74532148 44.02840419 -1 50 C-2.64574566 50.02688151 -4.29161413 50.04634123 -5.9375 50.0625 C-6.85402344 50.07410156 -7.77054687 50.08570313 -8.71484375 50.09765625 C-11 50 -11 50 -12 49 C-12.09326716 47.43452952 -12.11745582 45.86487228 -12.11352539 44.29663086 C-12.11344986 43.29566879 -12.11337433 42.29470673 -12.11329651 41.26341248 C-12.10813522 40.1748848 -12.10297394 39.08635712 -12.09765625 37.96484375 C-12.0962413 36.85645645 -12.09482635 35.74806915 -12.09336853 34.60609436 C-12.08775033 31.04986931 -12.07519475 27.49370617 -12.0625 23.9375 C-12.05748734 21.53320403 -12.05292403 19.12890708 -12.04882812 16.72460938 C-12.03777499 10.81638496 -12.02101917 4.9081969 -12 -1 C-3.953125 -2.32536765 -3.953125 -2.32536765 0 0 Z " fill="#034E8A" transform="translate(264,344)"/>
<path d="M0 0 C0 6.6 0 13.2 0 20 C5.94 20 11.88 20 18 20 C18 13.4 18 6.8 18 0 C27 -1 27 -1 29 0 C29.33 16.5 29.66 33 30 50 C28 51 28 51 18 51 C18 44.07 18 37.14 18 30 C17.01 30.33 16.02 30.66 15 31 C12.41581778 30.91244847 9.88582683 30.77125192 7.3125 30.5625 C4.899375 30.376875 2.48625 30.19125 0 30 C0 36.93 0 43.86 0 51 C-3.63 51 -7.26 51 -11 51 C-12.20516687 48.58966626 -12.12686106 47.0741859 -12.12939453 44.38256836 C-12.13254669 43.42495102 -12.13569885 42.46733368 -12.13894653 41.48069763 C-12.1369223 40.44421585 -12.13489807 39.40773407 -12.1328125 38.33984375 C-12.13376923 37.27963516 -12.13472595 36.21942657 -12.13571167 35.12709045 C-12.13639295 32.88347311 -12.13454227 30.6398538 -12.13037109 28.39624023 C-12.12501686 24.94836028 -12.13032058 21.50061029 -12.13671875 18.05273438 C-12.13605806 15.87760388 -12.1347771 13.70247346 -12.1328125 11.52734375 C-12.13483673 10.48883774 -12.13686096 9.45033173 -12.13894653 8.38035583 C-12.13579437 7.42589066 -12.13264221 6.47142548 -12.12939453 5.48803711 C-12.12859894 4.64357529 -12.12780334 3.79911346 -12.12698364 2.92906189 C-12 1 -12 1 -11 0 C-6.78079434 -0.79607654 -4.21652168 -1.05413042 0 0 Z " fill="#05508B" transform="translate(176,343)"/>
<path d="M0 0 C2.32728809 5.12003379 4.14327983 10.31345312 5.8828125 15.66015625 C7.49198915 20.47080672 9.27061716 25.21779528 11.046875 29.96875 C12 33 12 33 12 37 C12.66 37 13.32 37 14 37 C16.04301154 41.52381127 17.00956295 46.16371695 18 51 C15.56612247 52.21693876 13.58161154 52.31959896 10.875 52.5625 C9.96492188 52.64628906 9.05484375 52.73007812 8.1171875 52.81640625 C7.41851562 52.87699219 6.71984375 52.93757813 6 53 C5.32591692 51.73308493 4.66099503 50.46129251 4 49.1875 C3.62875 48.47980469 3.2575 47.77210938 2.875 47.04296875 C2 45 2 45 2 42 C-0.0839403 42.11443603 -2.16716493 42.24195547 -4.25 42.375 C-5.99023438 42.47941406 -5.99023438 42.47941406 -7.765625 42.5859375 C-10.7202023 42.96418049 -12.54479601 43.36122529 -15 45 C-15.75243555 46.92638012 -15.75243555 46.92638012 -16 49 C-16.33 49.99 -16.66 50.98 -17 52 C-20.96 52 -24.92 52 -29 52 C-30.26039727 48.2188082 -29.52943092 47.07345968 -28.12109375 43.3984375 C-27.69691162 42.27566406 -27.27272949 41.15289062 -26.83569336 39.99609375 C-26.37428955 38.80113281 -25.91288574 37.60617187 -25.4375 36.375 C-24.50942022 33.92485637 -23.58233643 31.47433525 -22.65625 29.0234375 C-22.20121094 27.82557617 -21.74617188 26.62771484 -21.27734375 25.39355469 C-19.60454266 20.94937749 -18.00430205 16.4824732 -16.4375 12 C-16.19894287 11.3198584 -15.96038574 10.6397168 -15.71459961 9.93896484 C-14.79146214 7.29838627 -13.88459204 4.65377611 -13 2 C-11.07421875 1.26953125 -11.07421875 1.26953125 -8.6875 0.8125 C-7.90761719 0.65394531 -7.12773437 0.49539063 -6.32421875 0.33203125 C-4 0 -4 0 0 0 Z M-8 21 C-8.33623796 22.2909136 -8.66889249 23.58276097 -9 24.875 C-9.185625 25.59429687 -9.37125 26.31359375 -9.5625 27.0546875 C-10.07313965 28.99289317 -10.07313965 28.99289317 -10 31 C-7.36 31 -4.72 31 -2 31 C-2.99 27.7 -3.98 24.4 -5 21 C-5.99 21 -6.98 21 -8 21 Z " fill="#044E8A" transform="translate(410,342)"/>
<path d="M0 0 C1.125 2.8125 1.125 2.8125 2 6 C2.96558787 8.47431893 3.96932414 10.92714483 5 13.375 C6 16 6 16 7 19.5625 C7.80721352 22.33729649 8.6926899 24.46708669 10 27 C10.67939174 28.99571323 11.34561559 30.99594773 12 33 C12.309375 33.763125 12.61875 34.52625 12.9375 35.3125 C13.88910842 37.71950953 14.81195669 40.12689769 15.6875 42.5625 C15.95949219 43.30628906 16.23148438 44.05007813 16.51171875 44.81640625 C17 47 17 47 16 51 C12.04 50.67 8.08 50.34 4 50 C1 42.25 1 42.25 1 40 C-6.92 40.495 -6.92 40.495 -15 41 C-16.32 43.97 -17.64 46.94 -19 50 C-20.79133978 50.05391993 -22.58313899 50.09275571 -24.375 50.125 C-25.37273437 50.14820313 -26.37046875 50.17140625 -27.3984375 50.1953125 C-30 50 -30 50 -32 48 C-31.6596875 47.16082031 -31.319375 46.32164062 -30.96875 45.45703125 C-26.8214193 35.16591545 -22.85915825 24.80937499 -18.92529297 14.43505859 C-16.96769579 9.28332396 -14.98412914 4.14156542 -13 -1 C-11.58566794 -1.2236337 -10.16832382 -1.42826476 -8.75 -1.625 C-7.56664062 -1.79902344 -7.56664062 -1.79902344 -6.359375 -1.9765625 C-3.62091613 -2.00376573 -2.25830006 -1.52708836 0 0 Z M-8 16 C-8.28875 17.03125 -8.5775 18.0625 -8.875 19.125 C-9.82308798 22.45007997 -10.88256594 25.72751453 -12 29 C-9.03 29 -6.06 29 -3 29 C-4.1656604 21.89701713 -4.1656604 21.89701713 -8 16 Z " fill="#0D538D" transform="translate(111,344)"/>
<path d="M0 0 C0.828125 2.6015625 0.828125 2.6015625 1.25 5.625 C1.39953125 6.62789063 1.5490625 7.63078125 1.703125 8.6640625 C1.85007812 9.82035156 1.85007812 9.82035156 2 11 C2.66 11 3.32 11 4 11 C4.495 14.96 4.495 14.96 5 19 C5.66 19 6.32 19 7 19 C7.12117188 19.67546875 7.24234375 20.3509375 7.3671875 21.046875 C7.61855469 22.38492187 7.61855469 22.38492187 7.875 23.75 C8.03742188 24.63171875 8.19984375 25.5134375 8.3671875 26.421875 C8.97957623 28.91679204 9.80603624 30.73954192 11 33 C11.92258199 35.15541279 12.81632189 37.32330284 13.6875 39.5 C14.37392578 41.18609375 14.37392578 41.18609375 15.07421875 42.90625 C16 46 16 46 15 50 C11.37 50 7.74 50 4 50 C4 49.34 4 48.68 4 48 C3.34 48 2.68 48 2 48 C1.34 45.69 0.68 43.38 0 41 C-4.95 41 -9.9 41 -15 41 C-16.32 43.97 -17.64 46.94 -19 50 C-22.96 50 -26.92 50 -31 50 C-30.66986956 43.39739124 -29.12328735 38.46154837 -26.45703125 32.4375 C-24.7924835 28.51041683 -23.38701411 24.53137306 -22 20.5 C-15.37179487 1.37179487 -15.37179487 1.37179487 -13 -1 C-11.5728386 -1.28659022 -10.13172901 -1.50549405 -8.6875 -1.6875 C-7.90761719 -1.79449219 -7.12773437 -1.90148437 -6.32421875 -2.01171875 C-3.53602672 -1.99766064 -2.2193326 -1.70456399 0 0 Z M-9 18 C-9.50615298 19.26839526 -10.00469099 20.53983102 -10.5 21.8125 C-10.7784375 22.52019531 -11.056875 23.22789062 -11.34375 23.95703125 C-12.1529162 26.11841216 -12.1529162 26.11841216 -12 29 C-9.36 29 -6.72 29 -4 29 C-4.67170806 25.1936543 -5.72746564 21.64793184 -7 18 C-7.66 18 -8.32 18 -9 18 Z " fill="#034E8B" transform="translate(328,344)"/>
<path d="M0 0 C1.7421875 1.0703125 1.7421875 1.0703125 3.7421875 3.0703125 C3.3671875 6.1953125 3.3671875 6.1953125 2.7421875 9.0703125 C1.7521875 9.4003125 0.7621875 9.7303125 -0.2578125 10.0703125 C-0.2578125 10.7303125 -0.2578125 11.3903125 -0.2578125 12.0703125 C-6.41015625 11.484375 -6.41015625 11.484375 -8.2578125 11.0703125 C-8.5878125 10.4103125 -8.9178125 9.7503125 -9.2578125 9.0703125 C-11.15314592 8.60508187 -11.15314592 8.60508187 -13.3203125 8.4453125 C-14.6196875 8.3215625 -15.9190625 8.1978125 -17.2578125 8.0703125 C-17.5878125 9.7203125 -17.9178125 11.3703125 -18.2578125 13.0703125 C-14.04784484 15.29011363 -10.15497028 17.16068524 -5.5703125 18.4453125 C-0.84153822 19.93989919 1.04232874 21.93615378 3.7421875 26.0703125 C5.75182397 30.70793511 5.00866019 36.3715491 4.2421875 41.2578125 C1.9921532 45.47662681 -0.84499931 47.33024421 -5.2578125 49.0703125 C-12.81174345 50.62970307 -20.52324696 50.96717861 -27.30078125 46.8203125 C-28.99607279 45.62920946 -30.63335358 44.35634248 -32.2578125 43.0703125 C-31.49377835 39.59877869 -30.17594339 37.07260432 -28.2578125 34.0703125 C-25.9478125 34.4003125 -23.6378125 34.7303125 -21.2578125 35.0703125 C-21.2578125 35.7303125 -21.2578125 36.3903125 -21.2578125 37.0703125 C-19.84348044 37.2939462 -18.42613632 37.49857726 -17.0078125 37.6953125 C-16.21890625 37.81132812 -15.43 37.92734375 -14.6171875 38.046875 C-11.93628791 38.07350645 -10.53087161 37.43623334 -8.2578125 36.0703125 C-8.14450257 33.64546351 -8.14450257 33.64546351 -9.2578125 31.0703125 C-11.89941335 29.78871392 -14.23199402 28.86548176 -17.0078125 28.0078125 C-22.11211677 26.3691105 -26.38348887 24.98160487 -30.2578125 21.0703125 C-32.01276686 16.76505502 -31.75564234 11.63014526 -31.2578125 7.0703125 C-29.14602063 2.3187808 -26.32418763 -0.1672624 -21.66015625 -2.234375 C-14.07702416 -4.4291677 -6.98505965 -3.45415038 0 0 Z " fill="#0F548C" transform="translate(242.2578125,344.9296875)"/>
<path d="M0 0 C1.61551758 0.05317383 1.61551758 0.05317383 3.26367188 0.10742188 C8.93583278 0.3404291 13.94518231 0.80625131 19.3125 2.6875 C19.3125 3.3475 19.3125 4.0075 19.3125 4.6875 C20.53259766 5.75871094 20.53259766 5.75871094 21.77734375 6.8515625 C25.68056557 11.21787844 24.99358817 15.51617507 24.73046875 21.0703125 C24.1785308 25.84689701 23.44934666 28.05536176 20.3125 31.6875 C17.1875 33.5625 17.1875 33.5625 14.3125 34.6875 C13.3225 35.1825 13.3225 35.1825 12.3125 35.6875 C9.75862508 35.75923806 7.23973239 35.78037732 4.6875 35.75 C2.25375 35.729375 -0.18 35.70875 -2.6875 35.6875 C-2.6875 40.9675 -2.6875 46.2475 -2.6875 51.6875 C-6.3175 51.6875 -9.9475 51.6875 -13.6875 51.6875 C-13.6875 34.8575 -13.6875 18.0275 -13.6875 0.6875 C-9.65609451 -1.32820274 -4.41236217 -0.18936063 0 0 Z M-2.6875 10.6875 C-2.6875 15.3075 -2.6875 19.9275 -2.6875 24.6875 C-1.12 24.749375 0.4475 24.81125 2.0625 24.875 C2.94421875 24.90980469 3.8259375 24.94460938 4.734375 24.98046875 C7.7939461 24.63279022 9.07999962 23.7634223 11.3125 21.6875 C12.55150473 19.03248985 12.37308996 17.89956487 11.5625 15.0625 C10.40480617 12.40385363 10.40480617 12.40385363 7.3125 10.6875 C4.79665109 10.44599227 4.79665109 10.44599227 2.125 10.5625 C0.536875 10.60375 -1.05125 10.645 -2.6875 10.6875 Z " fill="#0B538D" transform="translate(60.6875,342.3125)"/>
<path d="M0 0 C2.60861957 2.08689565 3.72913181 3.26478634 4.875 6.375 C5.03716895 9.78054786 4.47197433 11.9222355 3 15 C0.71420568 17.08410658 -0.84586475 17.96558245 -3.96484375 18.05859375 C-7.17103874 17.77797706 -9.36066436 17.49496953 -11.9375 15.5 C-15.29981412 13.05468064 -18.91032421 12.87240749 -23 13 C-26.64420773 13.89023704 -29.86029382 15.36310537 -33.125 17.1875 C-35.93095033 18.40341181 -37.97627348 18.37025223 -41 18 C-44.34289384 16.06855022 -45.70135072 14.8399511 -47 11.1875 C-47 7.17547575 -46.40098519 4.20381461 -44 1 C-31.50298141 -9.34909352 -12.89444529 -9.19042537 0 0 Z " fill="#F78E40" transform="translate(271,161)"/>
<path d="M0 0 C1.40427388 0.05334328 2.80857084 0.10608236 4.21289062 0.15820312 C7.62136758 0.2870459 11.02948813 0.42197328 14.4375 0.5625 C14.4375 3.8625 14.4375 7.1625 14.4375 10.5625 C11.4375 11.5625 11.4375 11.5625 0.4375 10.5625 C0.4375 24.0925 0.4375 37.6225 0.4375 51.5625 C-3.1925 51.5625 -6.8225 51.5625 -10.5625 51.5625 C-10.5625 38.0325 -10.5625 24.5025 -10.5625 10.5625 C-15.1825 10.8925 -19.8025 11.2225 -24.5625 11.5625 C-26.18901522 8.30946956 -25.67703156 5.17024398 -25.5625 1.5625 C-20.80768835 -3.19231165 -6.44144714 -0.26715679 0 0 Z " fill="#09528D" transform="translate(145.5625,342.4375)"/>
<path d="M0 0 C3.63 0 7.26 0 11 0 C11 13.2 11 26.4 11 40 C16.94 40 22.88 40 29 40 C29.33 42.31 29.66 44.62 30 47 C30.33 47.66 30.66 48.32 31 49 C30.34 49 29.68 49 29 49 C28.67 49.99 28.34 50.98 28 52 C24.03047101 51.88201056 20.06119219 51.75778201 16.09204102 51.62768555 C14.74085853 51.58428777 13.38961947 51.5426163 12.03833008 51.50268555 C10.09963299 51.44510048 8.16113724 51.38085702 6.22265625 51.31640625 C5.05484619 51.27974854 3.88703613 51.24309082 2.68383789 51.20532227 C0 51 0 51 -1 50 C-1.09839214 48.4706537 -1.12798539 46.93680434 -1.12939453 45.40429688 C-1.13254669 44.42658325 -1.13569885 43.44886963 -1.13894653 42.44152832 C-1.1369223 41.37801147 -1.13489807 40.31449463 -1.1328125 39.21875 C-1.13376923 38.13493042 -1.13472595 37.05111084 -1.13571167 35.93444824 C-1.13639365 33.6377761 -1.13453811 31.34110205 -1.13037109 29.04443359 C-1.12502312 25.51525572 -1.1303155 21.98620513 -1.13671875 18.45703125 C-1.13605797 16.23177055 -1.13477682 14.00650993 -1.1328125 11.78125 C-1.13483673 10.71773315 -1.13686096 9.65421631 -1.13894653 8.55847168 C-1.13579437 7.58075806 -1.13264221 6.60304443 -1.12939453 5.59570312 C-1.12859894 4.73046021 -1.12780334 3.86521729 -1.12698364 2.97375488 C-1 1 -1 1 0 0 Z " fill="#235F8F" transform="translate(348,343)"/>
<path d="M0 0 C1.01294079 2.4863092 0.99151134 4.424433 0.9375 7.125 C0.67134345 10.13239112 0.67134345 10.13239112 3 12 C5.27279815 12.34070409 7.51422264 12.44141829 9.80859375 12.55859375 C12.48242468 13.09717289 13.42972652 13.78524946 15 16 C14.55555556 22.44444444 14.55555556 22.44444444 13 24 C10.81707226 24.23481693 8.62796826 24.41363323 6.4375 24.5625 C4.64119141 24.68818359 4.64119141 24.68818359 2.80859375 24.81640625 C1.88175781 24.87699219 0.95492188 24.93757813 0 25 C0.16113281 25.58523438 0.32226562 26.17046875 0.48828125 26.7734375 C1.20872683 29.90820072 1.17790103 32.79778138 1 36 C-1 38 -1 38 -3.3828125 38.1953125 C-4.74019531 38.16050781 -4.74019531 38.16050781 -6.125 38.125 C-7.73375 38.08375 -9.3425 38.0425 -11 38 C-10.67 33.71 -10.34 29.42 -10 25 C-11.93875 24.87625 -13.8775 24.7525 -15.875 24.625 C-21.75 24.25 -21.75 24.25 -24 22 C-24.55713272 16.76295245 -24.55713272 16.76295245 -22.7734375 14.3203125 C-20.47752375 12.61101989 -19.14141288 12.68950379 -16.3125 12.8125 C-15.10013672 12.85310547 -15.10013672 12.85310547 -13.86328125 12.89453125 C-13.24839844 12.92933594 -12.63351562 12.96414063 -12 13 C-12 12.34 -12 11.68 -12 11 C-11.34 11 -10.68 11 -10 11 C-10 7.7 -10 4.4 -10 1 C-3.375 -1.125 -3.375 -1.125 0 0 Z " fill="#359C45" transform="translate(450,348)"/>
<path d="M0 0 C0.70125 0.01417969 1.4025 0.02835937 2.125 0.04296875 C3.176875 0.05263672 3.176875 0.05263672 4.25 0.0625 C6.125 0.23046875 6.125 0.23046875 8.125 1.23046875 C8.125 18.06046875 8.125 34.89046875 8.125 52.23046875 C4.495 52.23046875 0.865 52.23046875 -2.875 52.23046875 C-3.875 51.23046875 -3.875 51.23046875 -3.98852539 49.28100586 C-3.98328857 48.44835205 -3.97805176 47.61569824 -3.97265625 46.7578125 C-3.96943359 45.85869141 -3.96621094 44.95957031 -3.96289062 44.03320312 C-3.95451172 43.08767578 -3.94613281 42.14214844 -3.9375 41.16796875 C-3.93073242 39.74387695 -3.93073242 39.74387695 -3.92382812 38.29101562 C-3.9120011 35.9374381 -3.89552025 33.58398398 -3.875 31.23046875 C-2.885 31.23046875 -1.895 31.23046875 -0.875 31.23046875 C-1.205 30.24046875 -1.535 29.25046875 -1.875 28.23046875 C-1.215 28.23046875 -0.555 28.23046875 0.125 28.23046875 C0.125 27.24046875 0.125 26.25046875 0.125 25.23046875 C-0.865 25.56046875 -1.855 25.89046875 -2.875 26.23046875 C-2.875 24.91046875 -2.875 23.59046875 -2.875 22.23046875 C-8.485 22.23046875 -14.095 22.23046875 -19.875 22.23046875 C-19.875 21.90046875 -19.875 21.57046875 -19.875 21.23046875 C-14.595 21.23046875 -9.315 21.23046875 -3.875 21.23046875 C-3.89820313 19.88210938 -3.92140625 18.53375 -3.9453125 17.14453125 C-3.96406798 15.38151594 -3.98226842 13.61849466 -4 11.85546875 C-4.01675781 10.96601563 -4.03351563 10.0765625 -4.05078125 9.16015625 C-4.05722656 8.309375 -4.06367188 7.45859375 -4.0703125 6.58203125 C-4.08078613 5.79650879 -4.09125977 5.01098633 -4.10205078 4.20166016 C-3.78232704 1.42590803 -2.7954351 0.34360556 0 0 Z " fill="#155990" transform="translate(284.875,341.76953125)"/>
<path d="M0 0 C1.83863505 1.11631414 3.67079723 2.24329627 5.5 3.375 C6.5209375 4.00148438 7.541875 4.62796875 8.59375 5.2734375 C9.3878125 5.84320313 10.181875 6.41296875 11 7 C11 7.66 11 8.32 11 9 C11.53625 9.226875 12.0725 9.45375 12.625 9.6875 C18.64595596 13.0148704 22.74501378 17.81739564 26.875 23.1875 C27.37257812 23.81591797 27.87015625 24.44433594 28.3828125 25.09179688 C32 29.73749785 32 29.73749785 32 32 C32.99 32.495 32.99 32.495 34 33 C31.525 33.495 31.525 33.495 29 34 C29 33.34 29 32.68 29 32 C27.93652344 31.61714844 27.93652344 31.61714844 26.8515625 31.2265625 C23.75573114 29.89493093 21.18416396 28.23542257 18.375 26.375 C12.86426148 22.85511164 7.15298963 20.14630573 1.125 17.625 C0.32884277 17.29161621 -0.46731445 16.95823242 -1.28759766 16.61474609 C-5.80276814 14.7721477 -10.28490079 13.24478619 -15 12 C-14.401875 11.855625 -13.80375 11.71125 -13.1875 11.5625 C-11.43849596 11.1127561 -9.71322977 10.57107659 -8 10 C-7.01 10.33 -6.02 10.66 -5 11 C-5 10.34 -5 9.68 -5 9 C-4.360625 8.814375 -3.72125 8.62875 -3.0625 8.4375 C-0.57873787 7.05753944 -0.57873787 7.05753944 -0.25 3.375 C-0.1675 2.26125 -0.085 1.1475 0 0 Z " fill="#0A548E" transform="translate(211,274)"/>
<path d="M0 0 C2.35389586 5.17857089 4.18165086 10.43867754 5.94921875 15.84375 C7.53243031 20.59927023 9.26055152 25.29978815 11 30 C8 30 8 30 6 29.4375 C3.80883384 28.77947007 3.80883384 28.77947007 1 30 C0.855625 29.21625 0.71125 28.4325 0.5625 27.625 C0.12201075 25.03578982 0.12201075 25.03578982 -1 23 C-1.66 23.66 -2.32 24.32 -3 25 C-3 24.01 -3 23.02 -3 22 C-3.804375 21.71125 -4.60875 21.4225 -5.4375 21.125 C-8 20 -8 20 -9 18 C-9.99 17.67 -10.98 17.34 -12 17 C-12.36321485 15.33958925 -12.68676972 13.67056149 -13 12 C-13.13019531 11.33742188 -13.26039063 10.67484375 -13.39453125 9.9921875 C-14.30227095 4.58564996 -14.30227095 4.58564996 -13 2.0625 C-8.93107652 -0.0991156 -4.51602255 0 0 0 Z " fill="#074E89" transform="translate(410,342)"/>
<path d="M0 0 C0.66 1.32 1.32 2.64 2 4 C2.31582031 4.6084375 2.63164062 5.216875 2.95703125 5.84375 C4.33007778 8.682408 5.51583539 11.57251709 6.6875 14.5 C7.14511719 15.6240625 7.60273438 16.748125 8.07421875 17.90625 C9 21 9 21 8 25 C4.37 25 0.74 25 -3 25 C-3 24.34 -3 23.68 -3 23 C-3.66 23 -4.32 23 -5 23 C-5.66 20.69 -6.32 18.38 -7 16 C-13.93 15.505 -13.93 15.505 -21 15 C-20.34 14.34 -19.68 13.68 -19 13 C-19 12.01 -19 11.02 -19 10 C-17.35 10 -15.7 10 -14 10 C-13.34 8.68 -12.68 7.36 -12 6 C-14.64 5.67 -17.28 5.34 -20 5 C-20 4.67 -20 4.34 -20 4 C-17.03 4 -14.06 4 -11 4 C-10.67 3.01 -10.34 2.02 -10 1 C-9.34 2.32 -8.68 3.64 -8 5 C-4.04 2.525 -4.04 2.525 0 0 Z " fill="#1E6299" transform="translate(335,369)"/>
<path d="M0 0 C1.51400391 0.01740234 1.51400391 0.01740234 3.05859375 0.03515625 C4.07050781 0.04417969 5.08242188 0.05320312 6.125 0.0625 C7.29869141 0.07990234 7.29869141 0.07990234 8.49609375 0.09765625 C8.33532852 0.67823792 8.17456329 1.25881958 8.00892639 1.85699463 C7.19995778 5.39152963 7.25619151 8.97170563 7.1796875 12.58203125 C7.1589064 13.39762512 7.13812531 14.21321899 7.11671448 15.05352783 C7.05148078 17.6514873 6.99245607 20.24954538 6.93359375 22.84765625 C6.89038361 24.61198925 6.84676853 26.37631238 6.80273438 28.140625 C6.6958263 32.45953509 6.59448548 36.77854409 6.49609375 41.09765625 C6.00109375 39.61265625 6.00109375 39.61265625 5.49609375 38.09765625 C3.84609375 37.76765625 2.19609375 37.43765625 0.49609375 37.09765625 C-0.16390625 38.08765625 -0.82390625 39.07765625 -1.50390625 40.09765625 C-4.1859018 11.39103098 -4.1859018 11.39103098 -3.50390625 1.09765625 C-2.50390625 0.09765625 -2.50390625 0.09765625 0 0 Z " fill="#034D88" transform="translate(350.50390625,342.90234375)"/>
<path d="M0 0 C0.66 0 1.32 0 2 0 C2 0.66 2 1.32 2 2 C2.99 2.33 3.98 2.66 5 3 C4.67 3.66 4.34 4.32 4 5 C4.99 5.33 5.98 5.66 7 6 C7 6.66 7 7.32 7 8 C8.65 8 10.3 8 12 8 C12 7.34 12 6.68 12 6 C13.11375 5.690625 14.2275 5.38125 15.375 5.0625 C18.7945155 4.17673517 18.7945155 4.17673517 21 3 C21.99 3.66 22.98 4.32 24 5 C23.29617188 5.27972656 22.59234375 5.55945313 21.8671875 5.84765625 C9.79780876 10.74788705 -1.51204978 16.46445151 -12.453125 23.49609375 C-15 25 -15 25 -17 25 C-17 25.66 -17 26.32 -17 27 C-18.65 26.67 -20.3 26.34 -22 26 C-20.02138766 23.31688175 -18.01666394 20.65463193 -16 18 C-15.04287109 16.73929687 -15.04287109 16.73929687 -14.06640625 15.453125 C-10.07090795 10.31271783 -6.03783355 6.11251718 -1 2 C-0.67 1.34 -0.34 0.68 0 0 Z " fill="#13578F" transform="translate(277,281)"/>
<path d="M0 0 C0.66 0 1.32 0 2 0 C2 32.67 2 65.34 2 99 C3.32 99.33 4.64 99.66 6 100 C6 100.66 6 101.32 6 102 C6.74161377 101.98952637 7.48322754 101.97905273 8.24731445 101.96826172 C11.60234193 101.92672804 14.95731533 101.90068211 18.3125 101.875 C19.47974609 101.85824219 20.64699219 101.84148437 21.84960938 101.82421875 C22.96787109 101.81777344 24.08613281 101.81132812 25.23828125 101.8046875 C26.26993408 101.79421387 27.30158691 101.78374023 28.36450195 101.77294922 C31 102 31 102 34 104 C29.96174934 104.12406007 25.92424362 104.21455045 21.88452148 104.2746582 C20.51192898 104.29972617 19.13946898 104.33379082 17.76733398 104.37719727 C15.78949304 104.43817531 13.81065816 104.46361009 11.83203125 104.48828125 C10.04889526 104.52755737 10.04889526 104.52755737 8.22973633 104.56762695 C3.87556983 103.80238112 2.66950357 102.50957961 0 99 C-0.70851283 95.77702058 -0.63274709 92.63283024 -0.56762695 89.34448242 C-0.56835709 88.3781488 -0.56908722 87.41181519 -0.56983948 86.41619873 C-0.56636178 83.22871365 -0.52749075 80.04269789 -0.48828125 76.85546875 C-0.47895381 74.64301858 -0.47183737 72.43055807 -0.46684265 70.21809387 C-0.44776767 64.39978436 -0.39866165 58.58210064 -0.34332275 52.76403809 C-0.2921416 46.82520005 -0.26933097 40.88626072 -0.24414062 34.94726562 C-0.19054414 23.2979024 -0.10522456 11.64900327 0 0 Z " fill="#366890" transform="translate(137,175)"/>
<path d="M0 0 C0.33 0.99 0.66 1.98 1 3 C1.66 2.67 2.32 2.34 3 2 C5 4 5 4 5 7 C5.99 6.67 6.98 6.34 8 6 C8.32613281 6.75667969 8.65226563 7.51335937 8.98828125 8.29296875 C11.78596299 12.05761622 14.83797902 12.87278956 19.1875 14.3125 C20.31188477 14.70791992 20.31188477 14.70791992 21.45898438 15.11132812 C23.30060035 15.75648022 25.14963941 16.38037407 27 17 C27 17.66 27 18.32 27 19 C22.24792529 19.43200679 19.21789302 17.98489083 15 16 C15 16.66 15 17.32 15 18 C14.38125 18.12375 13.7625 18.2475 13.125 18.375 C10.80879168 18.87197356 10.80879168 18.87197356 9 21 C9.66 21.66 10.32 22.32 11 23 C9.375 23.75 9.375 23.75 7 24 C3.9375 22.1875 3.9375 22.1875 1 20 C0.01 19.34 -0.98 18.68 -2 18 C-3.09303197 15.05135561 -3.19281691 12.12600914 -3.25 9 C-3.27578125 8.154375 -3.3015625 7.30875 -3.328125 6.4375 C-2.93637521 3.52735872 -1.91578046 2.1779399 0 0 Z " fill="#145A91" transform="translate(214,348)"/>
<path d="M0 0 C0.66 0.33 1.32 0.66 2 1 C1.979375 2.11375 1.95875 3.2275 1.9375 4.375 C1.73619282 7.83215921 1.73619282 7.83215921 3 10 C3.99 10 4.98 10 6 10 C7.25127906 13.54667178 6.72285053 15.72253438 5.5625 19.25 C5.27503906 20.14203125 4.98757813 21.0340625 4.69140625 21.953125 C4.46324219 22.62859375 4.23507812 23.3040625 4 24 C6.64 24 9.28 24 12 24 C11.67 23.4225 11.34 22.845 11 22.25 C10 20 10 20 10 16 C9.34 15.67 8.68 15.34 8 15 C9.65 15 11.3 15 13 15 C13.33 15.99 13.66 16.98 14 18 C14.66 18.33 15.32 18.66 16 19 C16.125 21.375 16.125 21.375 16 24 C15.34 24.66 14.68 25.32 14 26 C11.1796875 25.9765625 11.1796875 25.9765625 7.875 25.625 C6.77929688 25.51414062 5.68359375 25.40328125 4.5546875 25.2890625 C3.71164062 25.19367188 2.86859375 25.09828125 2 25 C1.67 24.01 1.34 23.02 1 22 C0.67 22.33 0.34 22.66 0 23 C-0.99 23.33 -1.98 23.66 -3 24 C-3 23.34 -3 22.68 -3 22 C-4.32 22.33 -5.64 22.66 -7 23 C-7.33 25.97 -7.66 28.94 -8 32 C-9.98 32.495 -9.98 32.495 -12 33 C-8.68619632 21.65273286 -5.12741186 10.67510337 0 0 Z " fill="#12568E" transform="translate(396,349)"/>
<path d="M0 0 C1.32 0.33 2.64 0.66 4 1 C4 2.32 4 3.64 4 5 C4.66 5 5.32 5 6 5 C8.04301154 9.52381127 9.00956295 14.16371695 10 19 C7.56612247 20.21693876 5.58161154 20.31959896 2.875 20.5625 C1.96492188 20.64628906 1.05484375 20.73007812 0.1171875 20.81640625 C-0.58148438 20.87699219 -1.28015625 20.93757813 -2 21 C-2.67408308 19.73308493 -3.33900497 18.46129251 -4 17.1875 C-4.556875 16.12595703 -4.556875 16.12595703 -5.125 15.04296875 C-6 13 -6 13 -6 10 C-10.62 10.33 -15.24 10.66 -20 11 C-20 10.34 -20 9.68 -20 9 C-18.95199219 8.96261719 -17.90398437 8.92523438 -16.82421875 8.88671875 C-15.44527695 8.82105485 -14.06637229 8.75460765 -12.6875 8.6875 C-11.65206055 8.65366211 -11.65206055 8.65366211 -10.59570312 8.61914062 C-6.58938408 8.41811457 -6.58938408 8.41811457 -3.09375 6.625 C-1.68399655 4.53050916 -0.83465195 2.37554784 0 0 Z " fill="#15538B" transform="translate(418,374)"/>
<path d="M0 0 C0.33 0 0.66 0 1 0 C1.33 27.39 1.66 54.78 2 83 C2.99 83.33 3.98 83.66 5 84 C5.6875 86.0625 5.6875 86.0625 6 88 C5.34 88 4.68 88 4 88 C3.34 89.32 2.68 90.64 2 92 C1.01 92 0.02 92 -1 92 C-1.02314573 80.44765745 -1.04092651 68.8953204 -1.05181217 57.3429594 C-1.0570361 51.97903819 -1.0641249 46.61513281 -1.07543945 41.2512207 C-1.08628568 36.07708899 -1.09228054 30.90297254 -1.09487724 25.72883034 C-1.09672835 23.75242688 -1.10034297 21.77602428 -1.10573006 19.7996273 C-1.11296346 17.0365657 -1.11398996 14.27356756 -1.11352539 11.51049805 C-1.11712067 10.68906815 -1.12071594 9.86763824 -1.12442017 9.02131653 C-1.11845265 5.75255825 -1.04120266 3.12360797 0 0 Z " fill="#79B9D6" transform="translate(254,207)"/>
<path d="M0 0 C0.66 0 1.32 0 2 0 C2.04628766 12.20424957 2.08185103 24.40847835 2.10362434 36.61279774 C2.11407306 42.27941292 2.12825213 47.94596815 2.15087891 53.61254883 C2.17256845 59.07845844 2.18456042 64.54431031 2.18975449 70.01025963 C2.19345724 72.09831336 2.20068753 74.18636385 2.21146011 76.27439308 C2.22592331 79.19317139 2.22798011 82.11170935 2.22705078 85.03051758 C2.23424133 85.89870117 2.24143188 86.76688477 2.24884033 87.66137695 C2.22810432 93.65784352 2.22810432 93.65784352 0 97 C-0.66 97 -1.32 97 -2 97 C-2 96.01 -2 95.02 -2 94 C-1.34 94 -0.68 94 0 94 C0 62.98 0 31.96 0 0 Z " fill="#378BC0" transform="translate(344,156)"/>
<path d="M0 0 C0.66 0 1.32 0 2 0 C2.86772029 2.07772471 3.71873619 4.16243177 4.5625 6.25 C5.03816406 7.41015625 5.51382812 8.5703125 6.00390625 9.765625 C7 13 7 13 6 17 C2.37 17 -1.26 17 -5 17 C-5 16.34 -5 15.68 -5 15 C-5.66 15 -6.32 15 -7 15 C-7.33 11.7 -7.66 8.4 -8 5 C-6.68 4.34 -5.36 3.68 -4 3 C-4 3.66 -4 4.32 -4 5 C-2.29159719 3.36587557 -1.06546953 2.13093906 0 0 Z " fill="#10558D" transform="translate(337,377)"/>
<path d="M0 0 C0.66 0.33 1.32 0.66 2 1 C1.67 1.66 1.34 2.32 1 3 C1.66 3 2.32 3 3 3 C3.5867529 5.39214646 4.14451134 7.78538967 4.6875 10.1875 C4.93983398 11.19780273 4.93983398 11.19780273 5.19726562 12.22851562 C5.95823738 15.69516475 6.14170169 17.66345848 4.75 20.96875 C3 23 3 23 0.3125 23.3125 C-0.450625 23.209375 -1.21375 23.10625 -2 23 C-2 22.34 -2 21.68 -2 21 C-2.99 20.67 -3.98 20.34 -5 20 C-4.67 19.34 -4.34 18.68 -4 18 C-2.02 18 -0.04 18 2 18 C0.02 17.01 -1.96 16.02 -4 15 C-4.33 15.66 -4.66 16.32 -5 17 C-5.66 16.67 -6.32 16.34 -7 16 C-6.67 13.36 -6.34 10.72 -6 8 C-5.01 8 -4.02 8 -3 8 C-3.66 6.68 -4.32 5.36 -5 4 C-3.35 2.68 -1.7 1.36 0 0 Z " fill="#06518C" transform="translate(79,349)"/>
<path d="M0 0 C2.625 0.375 2.625 0.375 5 1 C5.53122363 2.76774419 6.04964073 4.53934083 6.5625 6.3125 C6.85253906 7.29863281 7.14257812 8.28476563 7.44140625 9.30078125 C8 12 8 12 7 15 C5.39679026 15.19551338 3.79237014 15.38111983 2.1875 15.5625 C1.29417969 15.66691406 0.40085937 15.77132812 -0.51953125 15.87890625 C-3 16 -3 16 -6 15 C-6 14.34 -6 13.68 -6 13 C-6.66 13 -7.32 13 -8 13 C-8 12.34 -8 11.68 -8 11 C-7.34 11 -6.68 11 -6 11 C-4.86832369 8.8174814 -3.87636148 6.67544888 -3 4.375 C-2 2 -2 2 0 0 Z " fill="#F98A39" transform="translate(310,115)"/>
<path d="M0 0 C0.99 0.66 1.98 1.32 3 2 C3 2.66 3 3.32 3 4 C3.66 4 4.32 4 5 4 C5 5.32 5 6.64 5 8 C6.65 8.33 8.3 8.66 10 9 C10.33 10.98 10.66 12.96 11 15 C6.25 19 6.25 19 4 19 C3.67 19.66 3.34 20.32 3 21 C2.34 21 1.68 21 1 21 C-1.7376287 16.32950485 -2.33996234 13.01200281 -2.1875 7.625 C-2.16042969 6.37976563 -2.13335937 5.13453125 -2.10546875 3.8515625 C-2.07066406 2.91054688 -2.03585937 1.96953125 -2 1 C-1.34 0.67 -0.68 0.34 0 0 Z " fill="#044885" transform="translate(325,354)"/>
<path d="M0 0 C0.33 0 0.66 0 1 0 C1 5.28 1 10.56 1 16 C7.27 16.33 13.54 16.66 20 17 C20.33 17.99 20.66 18.98 21 20 C21.66 20 22.32 20 23 20 C22.814375 20.598125 22.62875 21.19625 22.4375 21.8125 C21.77906313 24.16408762 21.77906313 24.16408762 23 27 C22.0625 29.1875 22.0625 29.1875 21 31 C21 29.35 21 27.7 21 26 C10.605 26.495 10.605 26.495 0 27 C0 25.68 0 24.36 0 23 C3.96 23.33 7.92 23.66 12 24 C12.66 22.68 13.32 21.36 14 20 C11.45587208 18.72793604 9.33403908 18.70882393 6.5 18.5 C1.22222222 18.11111111 1.22222222 18.11111111 -1 17 C-1.10477512 11.21408489 -0.99250545 5.70690634 0 0 Z " fill="#074C82" transform="translate(262,347)"/>
<path d="M0 0 C0.98613281 0.04833984 1.97226562 0.09667969 2.98828125 0.14648438 C4.53708984 0.2305957 4.53708984 0.2305957 6.1171875 0.31640625 C7.15746094 0.36861328 8.19773437 0.42082031 9.26953125 0.47460938 C11.84403866 0.60451571 14.41818046 0.73948877 16.9921875 0.87890625 C17.3221875 1.53890625 17.6521875 2.19890625 17.9921875 2.87890625 C10.4021875 2.87890625 2.8121875 2.87890625 -5.0078125 2.87890625 C-5.0078125 19.04890625 -5.0078125 35.21890625 -5.0078125 51.87890625 C-5.6678125 51.87890625 -6.3278125 51.87890625 -7.0078125 51.87890625 C-7.0078125 35.04890625 -7.0078125 18.21890625 -7.0078125 0.87890625 C-4.45798817 -0.39600591 -2.84315826 -0.14705991 0 0 Z " fill="#134C7A" transform="translate(54.0078125,342.12109375)"/>
<path d="M0 0 C2 2 2 2 2.5 4.0625 C2.665 4.701875 2.83 5.34125 3 6 C3.66 6.33 4.32 6.66 5 7 C4.34 8.98 3.68 10.96 3 13 C-0.96 13 -4.92 13 -9 13 C-10.13643966 9.59068103 -9.86747764 8.99664544 -8.5625 5.8125 C-8.27503906 5.09707031 -7.98757813 4.38164062 -7.69140625 3.64453125 C-7.46324219 3.10183594 -7.23507812 2.55914062 -7 2 C-5.02 2 -3.04 2 -1 2 C-0.67 1.34 -0.34 0.68 0 0 Z " fill="#0F5285" transform="translate(390,381)"/>
<path d="M0 0 C0.66 0 1.32 0 2 0 C2.33 5.94 2.66 11.88 3 18 C-3.8359375 17.609375 -3.8359375 17.609375 -6 17 C-8.48043656 13.49108975 -8.16133101 10.19460623 -8 6 C-7.01 6 -6.02 6 -5 6 C-5 6.99 -5 7.98 -5 9 C-4.34 9 -3.68 9 -3 9 C-2.87625 8.071875 -2.7525 7.14375 -2.625 6.1875 C-2 3 -2 3 0 0 Z " fill="#025190" transform="translate(203,375)"/>
<path d="M0 0 C1.375 2.9375 1.375 2.9375 2 6 C1.01 7.485 1.01 7.485 0 9 C-0.66 7.68 -1.32 6.36 -2 5 C-2.99 5.99 -3.98 6.98 -5 8 C-5.99 7.67 -6.98 7.34 -8 7 C-8.33 7.66 -8.66 8.32 -9 9 C-9.99 8.34 -10.98 7.68 -12 7 C-13.32 7.33 -14.64 7.66 -16 8 C-15.01 5.03 -14.02 2.06 -13 -1 C-11.5975 -1.20625 -10.195 -1.4125 -8.75 -1.625 C-7.56664063 -1.79902344 -7.56664063 -1.79902344 -6.359375 -1.9765625 C-3.6152993 -2.00382153 -2.26447687 -1.52778024 0 0 Z " fill="#0F4E88" transform="translate(111,344)"/>
<path d="M0 0 C0.66 0 1.32 0 2 0 C2.3755102 7.51020408 2.3755102 7.51020408 0.5625 9.875 C-1.45875656 12.62390893 -1.71297448 14.89181938 -2.1875 18.25 C-2.34605469 19.32765625 -2.50460937 20.4053125 -2.66796875 21.515625 C-2.77753906 22.33546875 -2.88710938 23.1553125 -3 24 C-0.69 24 1.62 24 4 24 C4 24.99 4 25.98 4 27 C0.04 27 -3.92 27 -8 27 C-7.66176917 20.23538334 -6.02260735 15.06832145 -3.25390625 8.89453125 C-1.98800748 5.97231633 -0.96606704 3.03300117 0 0 Z " fill="#336792" transform="translate(305,367)"/>
<path d="M0 0 C0.33 0 0.66 0 1 0 C1.00808685 1.10976196 1.01617371 2.21952393 1.02450562 3.36291504 C1.10210246 13.83841872 1.18987577 24.31379468 1.28752708 34.78913116 C1.3374018 40.17417338 1.38373257 45.55919682 1.421875 50.94433594 C1.45883932 56.14452392 1.50522938 61.34455134 1.55806351 66.54460144 C1.5765483 68.52521438 1.59167792 70.50586165 1.60334396 72.48652649 C1.6203079 75.26787643 1.64936694 78.04886337 1.68115234 80.83007812 C1.68331253 81.64288239 1.68547272 82.45568665 1.68769836 83.29312134 C1.76324047 88.49193079 2.56923612 92.99724933 4 98 C2.68 97.34 1.36 96.68 0 96 C0 64.32 0 32.64 0 0 Z " fill="#5AA2D0" transform="translate(154,155)"/>
<path d="M0 0 C0.93939287 1.04246106 1.85164448 2.10947338 2.75 3.1875 C3.44222656 4.00992187 4.13445312 4.83234375 4.84765625 5.6796875 C10.75 12.86243386 10.75 12.86243386 10.75 15.1875 C11.41 15.5175 12.07 15.8475 12.75 16.1875 C11.1 16.5175 9.45 16.8475 7.75 17.1875 C7.75 16.5275 7.75 15.8675 7.75 15.1875 C7.09 14.960625 6.43 14.73375 5.75 14.5 C1.84257775 12.79050277 -1.77421538 10.66281064 -5.25 8.1875 C-5.25 7.8575 -5.25 7.5275 -5.25 7.1875 C-3.6 6.8575 -1.95 6.5275 -0.25 6.1875 C-0.58 4.8675 -0.91 3.5475 -1.25 2.1875 C-2.9 1.8575 -4.55 1.5275 -6.25 1.1875 C-6.25 0.5275 -6.25 -0.1325 -6.25 -0.8125 C-3.30243295 -2.23169895 -2.59096793 -2.08716861 0 0 Z " fill="#366897" transform="translate(232.25,290.8125)"/>
<path d="M0 0 C0.33 0 0.66 0 1 0 C1.33 3.63 1.66 7.26 2 11 C2.33 11 2.66 11 3 11 C3 22.22 3 33.44 3 45 C5.31 45 7.62 45 10 45 C10 45.33 10 45.66 10 46 C7.36 46 4.72 46 2 46 C1.67 46.66 1.34 47.32 1 48 C-0.18695418 45.62609164 -0.12075833 44.19755049 -0.11352539 41.55029297 C-0.11344986 40.62948944 -0.11337433 39.70868591 -0.11329651 38.75997925 C-0.10813522 37.76410797 -0.10297394 36.76823669 -0.09765625 35.7421875 C-0.0962413 34.72399933 -0.09482635 33.70581116 -0.09336853 32.6567688 C-0.087759 29.39614965 -0.07520488 26.13559849 -0.0625 22.875 C-0.05748623 20.66796974 -0.05292311 18.46093841 -0.04882812 16.25390625 C-0.03778648 10.83591419 -0.02103905 5.41796195 0 0 Z " fill="#5D8DB5" transform="translate(164,346)"/>
<path d="M0 0 C0.66 0 1.32 0 2 0 C2 2.31 2 4.62 2 7 C3.39025391 6.98259766 3.39025391 6.98259766 4.80859375 6.96484375 C6.00613281 6.95582031 7.20367187 6.94679688 8.4375 6.9375 C9.63246094 6.92589844 10.82742187 6.91429687 12.05859375 6.90234375 C15 7 15 7 16 8 C18.21001755 20.74443452 16.63333478 34.1738937 16 47 C15.67 47 15.34 47 15 47 C15 34.46 15 21.92 15 9 C10.38 9.33 5.76 9.66 1 10 C-0.60725635 6.78548731 -0.05748185 3.56387464 0 0 Z " fill="#3A6991" transform="translate(120,344)"/>
<path d="M0 0 C0.89589844 -0.01417969 1.79179687 -0.02835937 2.71484375 -0.04296875 C5.0625 0.1875 5.0625 0.1875 7.0625 2.1875 C3.4325 2.1875 -0.1975 2.1875 -3.9375 2.1875 C-3.9375 9.1175 -3.9375 16.0475 -3.9375 23.1875 C-7.2375 23.1875 -10.5375 23.1875 -13.9375 23.1875 C-13.9375 22.5275 -13.9375 21.8675 -13.9375 21.1875 C-11.2975 21.1875 -8.6575 21.1875 -5.9375 21.1875 C-5.94273682 20.58687744 -5.94797363 19.98625488 -5.95336914 19.36743164 C-5.97408014 16.66163162 -5.98714125 13.95584823 -6 11.25 C-6.00837891 10.30447266 -6.01675781 9.35894531 -6.02539062 8.38476562 C-6.02861328 7.48564453 -6.03183594 6.58652344 -6.03515625 5.66015625 C-6.04039307 4.82750244 -6.04562988 3.99484863 -6.05102539 3.13696289 C-5.82374894 -0.76583816 -3.33804107 0.02394578 0 0 Z " fill="#174B7D" transform="translate(179.9375,370.8125)"/>
<path d="M0 0 C0.66 0.33 1.32 0.66 2 1 C3.70702735 1.06996014 5.41668003 1.08440154 7.125 1.0625 C8.03507812 1.05347656 8.94515625 1.04445312 9.8828125 1.03515625 C10.93082031 1.01775391 10.93082031 1.01775391 12 1 C12.33 1.66 12.66 2.32 13 3 C11.5 5 11.5 5 9 7 C3.63814389 7.59576179 0.37098804 7.44380876 -4 4 C-4.33 3.34 -4.66 2.68 -5 2 C-3.68 2.33 -2.36 2.66 -1 3 C-0.67 2.01 -0.34 1.02 0 0 Z " fill="#F2954F" transform="translate(285,149)"/>
<path d="M0 0 C0.33 0 0.66 0 1 0 C3.20927172 5.97802937 2.93213141 10.73960391 2 17 C1.71125 16.401875 1.4225 15.80375 1.125 15.1875 C-0.04742026 12.80672208 -0.04742026 12.80672208 -2 10 C-5 9.75 -5 9.75 -8 10 C-10 10 -10 10 -13 9 C-12.34 7.68 -11.68 6.36 -11 5 C-10.67 5.66 -10.34 6.32 -10 7 C-9.01 6.67 -8.02 6.34 -7 6 C-6.34 6.33 -5.68 6.66 -5 7 C-4.360625 6.030625 -3.72125 5.06125 -3.0625 4.0625 C-1 1 -1 1 0 0 Z " fill="#175B94" transform="translate(321,351)"/>
<path d="M0 0 C7.75 -0.125 7.75 -0.125 10 1 C10 7.6 10 14.2 10 21 C9.67 21 9.34 21 9 21 C9 14.73 9 8.46 9 2 C7.58422523 3.18424326 7.58422523 3.18424326 7.9375 6.5625 C7.958125 7.696875 7.97875 8.83125 8 10 C6.68 9.01 5.36 8.02 4 7 C2.68 7.99 1.36 8.98 0 10 C0 6.66666667 0 3.33333333 0 0 Z " fill="#3571A3" transform="translate(283,342)"/>
<path d="M0 0 C0.99 0.33 1.98 0.66 3 1 C3 1.66 3 2.32 3 3 C3.66 3 4.32 3 5 3 C6.0625 4.75 6.0625 4.75 7 7 C6.67 8.32 6.34 9.64 6 11 C2.04 10.67 -1.92 10.34 -6 10 C-6.33 7.69 -6.66 5.38 -7 3 C-6.01 3.33 -5.02 3.66 -4 4 C-4 4.99 -4 5.98 -4 7 C-2.68 6.34 -1.36 5.68 0 5 C0 3.68 0 2.36 0 1 C0 0.67 0 0.34 0 0 Z " fill="#08487E" transform="translate(121,384)"/>
<path d="M0 0 C0.33 0.66 0.66 1.32 1 2 C0.67 2.99 0.34 3.98 0 5 C-0.99 5 -1.98 5 -3 5 C-3 6.32 -3 7.64 -3 9 C-3.66 9 -4.32 9 -5 9 C-5.1546875 9.804375 -5.1546875 9.804375 -5.3125 10.625 C-6.20788159 13.7181364 -7.32234096 16.24384586 -9 19 C-11.6875 20.375 -11.6875 20.375 -14 21 C-14 16.49863214 -14 16.49863214 -11.69921875 13.65234375 C-10.97508789 12.74452148 -10.97508789 12.74452148 -10.23632812 11.81835938 C-9.4696582 10.88733398 -9.4696582 10.88733398 -8.6875 9.9375 C-8.18798828 9.31294922 -7.68847656 8.68839844 -7.17382812 8.04492188 C-4.89691061 5.21913153 -2.59958834 2.53666047 0 0 Z " fill="#398FC5" transform="translate(270,187)"/>
<path d="M0 0 C1.32 0.33 2.64 0.66 4 1 C4.625 3.8125 4.625 3.8125 5 7 C4.01 8.485 4.01 8.485 3 10 C2.34 10 1.68 10 1 10 C1 10.66 1 11.32 1 12 C-1.64 11.67 -4.28 11.34 -7 11 C-7 9 -7 9 -5.625 7.375 C-4 6 -4 6 -2 6 C-2 5.34 -2 4.68 -2 4 C-1.34 4 -0.68 4 0 4 C0 2.68 0 1.36 0 0 Z " fill="#306B9B" transform="translate(241,345)"/>
<path d="M0 0 C0.99 0.66 1.98 1.32 3 2 C2.34 2 1.68 2 1 2 C1.09539062 2.61746094 1.19078125 3.23492187 1.2890625 3.87109375 C2.10936826 10.13784826 1.67065072 14.90703855 0 21 C-3.3 21 -6.6 21 -10 21 C-10 20.34 -10 19.68 -10 19 C-7.36 19 -4.72 19 -2 19 C-2.02320313 17.79601562 -2.04640625 16.59203125 -2.0703125 15.3515625 C-2.08906863 13.77604785 -2.10726899 12.20052652 -2.125 10.625 C-2.14175781 9.8309375 -2.15851563 9.036875 -2.17578125 8.21875 C-2.19335473 6.14507985 -2.10335168 4.07116759 -2 2 C-1.34 1.34 -0.68 0.68 0 0 Z " fill="#416AA3" transform="translate(263,373)"/>
<path d="M0 0 C1 2 1 2 0.9375 3.8125 C-0.52058124 7.21468955 -3.08270714 8.76547781 -6 11 C-6.33 9.68 -6.66 8.36 -7 7 C-7.99 7 -8.98 7 -10 7 C-10.33 6.34 -10.66 5.68 -11 5 C-10 2 -10 2 -8.22265625 1.015625 C-7.15337891 0.63664062 -7.15337891 0.63664062 -6.0625 0.25 C-5.35222656 -0.01296875 -4.64195312 -0.2759375 -3.91015625 -0.546875 C-2 -1 -2 -1 0 0 Z " fill="#034F8E" transform="translate(225,345)"/>
<path d="M0 0 C4.87804878 4.14634146 4.87804878 4.14634146 5.4375 8.0625 C5.01614699 10.89158449 4.5965514 12.6471874 3 15 C-0.122002 17.08133467 -0.93266989 17.2737822 -4.5 17.25 C-5.66015625 17.25773437 -5.66015625 17.25773437 -6.84375 17.265625 C-9 17 -9 17 -12 15 C-12 14.34 -12 13.68 -12 13 C-12.99 12.67 -13.98 12.34 -15 12 C-14.34 11.67 -13.68 11.34 -13 11 C-12.34 11.33 -11.68 11.66 -11 12 C-11 12.66 -11 13.32 -11 14 C-6.71 14 -2.42 14 2 14 C2 9.39896269 1.30892548 6.33581565 0 2 C0 1.34 0 0.68 0 0 Z " fill="#EC9E62" transform="translate(315,116)"/>
<path d="M0 0 C0.99 0.33 1.98 0.66 3 1 C3 1.99 3 2.98 3 4 C3.66 4 4.32 4 5 4 C5.33 6.97 5.66 9.94 6 13 C5.01 13.66 4.02 14.32 3 15 C2.67 14.34 2.34 13.68 2 13 C1.01 12.67 0.02 12.34 -1 12 C-1.22162329 10.37675914 -1.42689803 8.751279 -1.625 7.125 C-1.74101562 6.22007812 -1.85703125 5.31515625 -1.9765625 4.3828125 C-1.98429688 3.59648437 -1.99203125 2.81015625 -2 2 C-1.34 1.34 -0.68 0.68 0 0 Z " fill="#015292" transform="translate(238,370)"/>
<path d="M0 0 C1.22589844 0.15275391 1.22589844 0.15275391 2.4765625 0.30859375 C3.41628906 0.43427734 3.41628906 0.43427734 4.375 0.5625 C4.375 0.8925 4.375 1.2225 4.375 1.5625 C3.47007813 1.51416016 3.47007813 1.51416016 2.546875 1.46484375 C-0.1020287 1.50329558 -2.12504631 1.65890228 -4.625 2.5625 C-6.63452605 5.35790368 -7.67396078 8.27044116 -8.625 11.5625 C-10.41633978 11.61641993 -12.20813899 11.65525571 -14 11.6875 C-14.99773437 11.71070313 -15.99546875 11.73390625 -17.0234375 11.7578125 C-19.625 11.5625 -19.625 11.5625 -21.625 9.5625 C-20.635 8.2425 -19.645 6.9225 -18.625 5.5625 C-18.295 6.8825 -17.965 8.2025 -17.625 9.5625 C-14.985 9.5625 -12.345 9.5625 -9.625 9.5625 C-9.43164062 8.92441406 -9.23828125 8.28632813 -9.0390625 7.62890625 C-8.77867188 6.80261719 -8.51828125 5.97632813 -8.25 5.125 C-7.99476562 4.30128906 -7.73953125 3.47757812 -7.4765625 2.62890625 C-5.91496028 -1.16048629 -3.59539993 -0.46226571 0 0 Z " fill="#456C96" transform="translate(100.625,382.4375)"/>
<path d="M0 0 C0.33 0.66 0.66 1.32 1 2 C1.99 2 2.98 2 4 2 C4 1.34 4 0.68 4 0 C6.97 0.495 6.97 0.495 10 1 C9.690625 1.598125 9.38125 2.19625 9.0625 2.8125 C7.89790296 5.08956772 7.89790296 5.08956772 7 8 C5.72125 8.061875 4.4425 8.12375 3.125 8.1875 C2.40570313 8.22230469 1.68640625 8.25710938 0.9453125 8.29296875 C0.30335938 8.19628906 -0.33859375 8.09960938 -1 8 C-1.66 7.01 -2.32 6.02 -3 5 C-2.01 3.35 -1.02 1.7 0 0 Z " fill="#035190" transform="translate(225,364)"/>
<path d="M0 0 C0.33 0 0.66 0 1 0 C1 9.24 1 18.48 1 28 C-0.99390001 24.01219998 -1.22686963 22.52852428 -1.125 18.25 C-1.09792969 16.77273438 -1.09792969 16.77273438 -1.0703125 15.265625 C-1.03550781 14.14414062 -1.03550781 14.14414062 -1 13 C-1.99 13 -2.98 13 -4 13 C-3.29666462 10.02277453 -2.41751463 7.14743457 -1.4375 4.25 C-1.16808594 3.45078125 -0.89867187 2.6515625 -0.62109375 1.828125 C-0.41613281 1.22484375 -0.21117187 0.6215625 0 0 Z " fill="#326B9B" transform="translate(204,343)"/>
<path d="M0 0 C3.26460973 1.80412643 4.88929795 2.83394693 7 6 C6.01 6 5.02 6 4 6 C4 5.34 4 4.68 4 4 C2.05000871 4.19471111 2.05000871 4.19471111 0 5 C-0.433125 5.99 -0.433125 5.99 -0.875 7 C-2 9 -2 9 -4.625 9.9375 C-9.08113794 10.02002107 -11.91913039 8.75899552 -16 7 C-16 6.67 -16 6.34 -16 6 C-12.04 6.33 -8.08 6.66 -4 7 C-3.8509288 4.9254644 -3.8509288 4.9254644 -5 3 C-3.35 2.01 -1.7 1.02 0 0 Z " fill="#045190" transform="translate(221,282)"/>
<path d="M0 0 C-3.20380017 2.13586678 -4.01939967 2.23132175 -7.6875 2.125 C-8.49574219 2.10695313 -9.30398438 2.08890625 -10.13671875 2.0703125 C-11.05904297 2.03550781 -11.05904297 2.03550781 -12 2 C-12.33 4.31 -12.66 6.62 -13 9 C-13.99 9.33 -14.98 9.66 -16 10 C-15.25 2.375 -15.25 2.375 -13 -1 C-10.9765625 -1.58203125 -10.9765625 -1.58203125 -8.625 -1.8125 C-7.85414063 -1.90144531 -7.08328125 -1.99039062 -6.2890625 -2.08203125 C-3.70174274 -1.9893116 -2.20873169 -1.3060765 0 0 Z " fill="#194F7A" transform="translate(328,344)"/>
<path d="M0 0 C1.43655854 -0.08131463 2.8744483 -0.13933559 4.3125 -0.1875 C5.51326172 -0.23970703 5.51326172 -0.23970703 6.73828125 -0.29296875 C9 0 9 0 10.80859375 1.28515625 C12 3 12 3 11.75 6.625 C11 10 11 10 10 11 C8.00041636 11.04080783 5.99954746 11.04254356 4 11 C4 10.67 4 10.34 4 10 C5.65 10 7.3 10 9 10 C9 7.69 9 5.38 9 3 C4.545 3.495 4.545 3.495 0 4 C0 2.68 0 1.36 0 0 Z " fill="#50A05E" transform="translate(453,361)"/>
<path d="M0 0 C1.27603607 3.82810821 0.86283987 7.23475107 0.5625 11.1875 C0.51029297 11.93708984 0.45808594 12.68667969 0.40429688 13.45898438 C0.27486216 15.30637082 0.13813482 17.15324371 0 19 C-0.33 19 -0.66 19 -1 19 C-1.03738281 18.24074219 -1.07476562 17.48148437 -1.11328125 16.69921875 C-1.17902344 15.70535156 -1.24476563 14.71148437 -1.3125 13.6875 C-1.37050781 12.70136719 -1.42851562 11.71523438 -1.48828125 10.69921875 C-2.06162714 7.67492859 -2.75238514 6.97027421 -5 5 C-5.33 4.01 -5.66 3.02 -6 2 C-9.00847418 0.77479736 -9.00847418 0.77479736 -12 0 C-12 -0.33 -12 -0.66 -12 -1 C-7.3709597 -1.90765496 -4.17006403 -2.45297884 0 0 Z " fill="#4A7CAA" transform="translate(264,344)"/>
<path d="M0 0 C0.66 0 1.32 0 2 0 C2 5.94 2 11.88 2 18 C4.64 18 7.28 18 10 18 C9.67 18.99 9.34 19.98 9 21 C2.84765625 21.09765625 2.84765625 21.09765625 1 21 C0 20 0 20 -0.11352539 18.05053711 C-0.10567017 16.8015564 -0.10567017 16.8015564 -0.09765625 15.52734375 C-0.09443359 14.62822266 -0.09121094 13.72910156 -0.08789062 12.80273438 C-0.07951172 11.85720703 -0.07113281 10.91167969 -0.0625 9.9375 C-0.05798828 8.98810547 -0.05347656 8.03871094 -0.04882812 7.06054688 C-0.0370011 4.70696935 -0.02052025 2.35351523 0 0 Z " fill="#34618B" transform="translate(281,373)"/>
<path d="M0 0 C0.66 0.33 1.32 0.66 2 1 C0.98379995 4.04860014 0.22608429 4.86666922 -2 7 C-2.33 7.66 -2.66 8.32 -3 9 C-4.423125 9.2165625 -4.423125 9.2165625 -5.875 9.4375 C-9.25642836 10.0461571 -9.87177451 10.48482443 -12 13 C-13.31963709 14.01800576 -14.65009646 15.02248365 -16 16 C-16.66 15.67 -17.32 15.34 -18 15 C-16.625 13.5 -16.625 13.5 -15 12 C-14.34 12 -13.68 12 -13 12 C-13 11.34 -13 10.68 -13 10 C-10.8664718 8.21229093 -8.73155942 6.53127176 -6.5 4.875 C-5.87996094 4.40707031 -5.25992187 3.93914062 -4.62109375 3.45703125 C-3.08497483 2.29903391 -1.54301941 1.14878643 0 0 Z " fill="#4898C9" transform="translate(289,171)"/>
<path d="M0 0 C0.66 0.33 1.32 0.66 2 1 C2.73075648 3.3140622 3.40138258 5.64828869 4 8 C1.56612247 9.21693876 -0.41838846 9.31959896 -3.125 9.5625 C-4.49011719 9.68818359 -4.49011719 9.68818359 -5.8828125 9.81640625 C-6.58148438 9.87699219 -7.28015625 9.93757813 -8 10 C-10 7 -10 7 -10 4 C-9.34 4 -8.68 4 -8 4 C-8 4.66 -8 5.32 -8 6 C-5.36 6 -2.72 6 0 6 C0 4.02 0 2.04 0 0 Z " fill="#2E5C83" transform="translate(424,385)"/>
<path d="M0 0 C1.36421031 2.72842061 0.87807211 4.60953318 0.5625 7.625 C0.46066406 8.62789062 0.35882813 9.63078125 0.25390625 10.6640625 C0.17011719 11.43492188 0.08632812 12.20578125 0 13 C0.66 13.33 1.32 13.66 2 14 C2 14.66 2 15.32 2 16 C4.64 16 7.28 16 10 16 C10 16.33 10 16.66 10 17 C1.98630137 17.61643836 1.98630137 17.61643836 -1.5 15.4375 C-3.53026534 12.13831882 -4 9.87929749 -4 6 C-2.0625 2.5625 -2.0625 2.5625 0 0 Z " fill="#ED9957" transform="translate(184,116)"/>
<path d="M0 0 C-0.33 0.66 -0.66 1.32 -1 2 C-1.969375 1.835 -2.93875 1.67 -3.9375 1.5 C-10.39289585 0.59650646 -15.95758052 0.3342267 -22 3 C-22.99 2.67 -23.98 2.34 -25 2 C-17.04913052 -2.89284276 -8.67106083 -3.96300769 0 0 Z " fill="#306589" transform="translate(240,344)"/>
<path d="M0 0 C1.65 0 3.3 0 5 0 C5.33 0.99 5.66 1.98 6 3 C6.66 3.33 7.32 3.66 8 4 C8.125 6.375 8.125 6.375 8 9 C7.34 9.66 6.68 10.32 6 11 C3.3984375 10.9765625 3.3984375 10.9765625 0.375 10.625 C-0.62789063 10.51414062 -1.63078125 10.40328125 -2.6640625 10.2890625 C-3.82035156 10.14597656 -3.82035156 10.14597656 -5 10 C-5 9.67 -5 9.34 -5 9 C-2.03 9 0.94 9 4 9 C3.34 7.68 2.68 6.36 2 5 C2 3.68 2 2.36 2 1 C1.34 0.67 0.68 0.34 0 0 Z " fill="#3B729C" transform="translate(404,364)"/>
<path d="M0 0 C0.33 0 0.66 0 1 0 C1 8.91 1 17.82 1 27 C3.31 27 5.62 27 8 27 C8.33 26.34 8.66 25.68 9 25 C9 26.32 9 27.64 9 29 C5.7 29 2.4 29 -1 29 C-0.67 19.43 -0.34 9.86 0 0 Z " fill="#194D7A" transform="translate(136,365)"/>
<path d="M0 0 C0.33 0.66 0.66 1.32 1 2 C1.66 2.33 2.32 2.66 3 3 C-1.49656104 5.24828052 -5.07872966 5.16682272 -10 5 C-10 7.31 -10 9.62 -10 12 C-10.66 11.67 -11.32 11.34 -12 11 C-12.36619718 5.50704225 -12.36619718 5.50704225 -10.78125 3.3125 C-8.47956546 1.61652192 -7.13893251 1.68961163 -4.3125 1.8125 C-3.10013672 1.85310547 -3.10013672 1.85310547 -1.86328125 1.89453125 C-1.24839844 1.92933594 -0.63351562 1.96414063 0 2 C0 1.34 0 0.68 0 0 Z " fill="#63A371" transform="translate(438,359)"/>
<path d="M0 0 C10.06354218 -0.12847075 19.96724089 0.20307162 30 1 C30 1.33 30 1.66 30 2 C20.1 2.33 10.2 2.66 0 3 C0 2.01 0 1.02 0 0 Z " fill="#326694" transform="translate(329,277)"/>
<path d="M0 0 C0.33 0.99 0.66 1.98 1 3 C0.67 3.33 0.34 3.66 0 4 C-0.04080783 5.99958364 -0.04254356 8.00045254 0 10 C-1.32 10.33 -2.64 10.66 -4 11 C-4 11.66 -4 12.32 -4 13 C-5.65 12.67 -7.3 12.34 -9 12 C-6 8 -3 4 0 0 Z " fill="#3B6891" transform="translate(264,295)"/>
<path d="M0 0 C11.99445488 0.21042903 11.99445488 0.21042903 15.25 3.4375 C17 6 17 6 17 8 C11.27789404 6.13236819 5.62338249 4.14710968 0 2 C0 1.34 0 0.68 0 0 Z " fill="#2C87C0" transform="translate(186,257)"/>
<path d="M0 0 C0.33 0 0.66 0 1 0 C1 2.97 1 5.94 1 9 C2.65 9 4.3 9 6 9 C6 9.99 6 10.98 6 12 C10.455 11.505 10.455 11.505 15 11 C14.67 11.66 14.34 12.32 14 13 C9.60568217 14.28924201 6.08820286 14.56677232 2 12.4375 C-0.40064414 9.51171496 -0.84349024 7.75623429 -1 4 C-0.5625 1.625 -0.5625 1.625 0 0 Z " fill="#EAA86C" transform="translate(225,165)"/>
<path d="M0 0 C1.32 0 2.64 0 4 0 C4.66 0.66 5.32 1.32 6 2 C6.99 2.33 7.98 2.66 9 3 C8.67 3.66 8.34 4.32 8 5 C7.01 4.67 6.02 4.34 5 4 C4.67 4.99 4.34 5.98 4 7 C3.67 6.34 3.34 5.68 3 5 C2.34 5 1.68 5 1 5 C1 5.66 1 6.32 1 7 C-1.31 6.67 -3.62 6.34 -6 6 C-5.38125 5.7525 -4.7625 5.505 -4.125 5.25 C-1.64931313 3.79371361 -1.04874998 2.62187494 0 0 Z " fill="#064D88" transform="translate(221,286)"/>
<path d="M0 0 C2.0625 0.4375 2.0625 0.4375 4 1 C3.75 4.375 3.75 4.375 3 8 C1 9.3125 1 9.3125 -1 10 C-1.33 10.66 -1.66 11.32 -2 12 C-2 9 -2 9 -1 7 C-1.66 7 -2.32 7 -3 7 C-1.125 1.125 -1.125 1.125 0 0 Z " fill="#075291" transform="translate(330,363)"/>
<path d="M0 0 C1.875 0.1875 1.875 0.1875 4 1 C5.5225431 3.68257593 6.12235992 5.24544717 5.625 8.3125 C5.41875 8.869375 5.2125 9.42625 5 10 C3.68 9.67 2.36 9.34 1 9 C1.99 9 2.98 9 4 9 C3.67 7.68 3.34 6.36 3 5 C2.67 5.66 2.34 6.32 2 7 C1.01 7 0.02 7 -1 7 C-1.625 5.1875 -1.625 5.1875 -2 3 C-1.34 2.01 -0.68 1.02 0 0 Z " fill="#034D89" transform="translate(338,384)"/>
<path d="M0 0 C0.33 0 0.66 0 1 0 C1.06058594 0.97582031 1.12117187 1.95164062 1.18359375 2.95703125 C1.26738281 4.22933594 1.35117188 5.50164062 1.4375 6.8125 C1.51871094 8.07707031 1.59992188 9.34164063 1.68359375 10.64453125 C1.87184547 13.99181893 1.87184547 13.99181893 3 17 C5.31 17.33 7.62 17.66 10 18 C10 18.66 10 19.32 10 20 C6.7 20 3.4 20 0 20 C0 13.4 0 6.8 0 0 Z " fill="#1C4B7A" transform="translate(194,374)"/>
<path d="M0 0 C1.70884005 1.62339805 3.37446717 3.29319053 5 5 C5 5.66 5 6.32 5 7 C5.66 7.33 6.32 7.66 7 8 C5.35 8.33 3.7 8.66 2 9 C2 8.34 2 7.68 2 7 C-0.475 6.01 -0.475 6.01 -3 5 C-1.125 1.125 -1.125 1.125 0 0 Z " fill="#2A5B88" transform="translate(238,299)"/>
<path d="M0 0 C0.66 0.66 1.32 1.32 2 2 C-4.6 2 -11.2 2 -18 2 C-18.33 1.34 -18.66 0.68 -19 0 C-12.58702881 -0.93091517 -6.39126549 -1.38940554 0 0 Z " fill="#09507F" transform="translate(140,343)"/>
<path d="M0 0 C0.66 0 1.32 0 2 0 C2.1875 2.3125 2.1875 2.3125 2 5 C0.5 6.6875 0.5 6.6875 -1 8 C-1 8.66 -1 9.32 -1 10 C-2.32 10.33 -3.64 10.66 -5 11 C-5.20140476 7.37471432 -4.85776765 5.13498292 -3 2 C-2.01 2 -1.02 2 0 2 C0 1.34 0 0.68 0 0 Z " fill="#0C528B" transform="translate(268,293)"/>
<path d="M0 0 C0.66 0 1.32 0 2 0 C2.37022133 7.40442656 2.37022133 7.40442656 0.5625 10.3125 C0.046875 10.869375 -0.46875 11.42625 -1 12 C-1.33 12.99 -1.66 13.98 -2 15 C-2.99 15.33 -3.98 15.66 -5 16 C-3.41078475 10.63904723 -1.81027062 5.29156027 0 0 Z " fill="#346894" transform="translate(305,367)"/>
<path d="M0 0 C2.62594784 0.1136515 5.25011547 0.24039054 7.875 0.375 C8.62136719 0.4059375 9.36773437 0.436875 10.13671875 0.46875 C15.7734375 0.7734375 15.7734375 0.7734375 18 3 C12.06 3.33 6.12 3.66 0 4 C0 2.68 0 1.36 0 0 Z " fill="#0B4178" transform="translate(262,370)"/>
<path d="M0 0 C3.70129644 0.38961015 5.61879622 1.11749016 8 4 C7.01 5.98 6.02 7.96 5 10 C1.91910327 7.22719294 0.31224548 4.93673644 -1 1 C-0.67 0.67 -0.34 0.34 0 0 Z " fill="#125B92" transform="translate(311,362)"/>
<path d="M0 0 C1.5625 1.1875 1.5625 1.1875 3 3 C2.6875 5.6875 2.6875 5.6875 2 8 C1.01 8 0.02 8 -1 8 C-2.33981486 8.3062434 -3.67511887 8.63451555 -5 9 C-4.67 6.36 -4.34 3.72 -4 1 C-3.67 1.99 -3.34 2.98 -3 4 C-2.34 3.67 -1.68 3.34 -1 3 C-0.67 2.01 -0.34 1.02 0 0 Z " fill="#0A4F87" transform="translate(315,350)"/>
<path d="M0 0 C1.65 0.33 3.3 0.66 5 1 C3.55350197 3.89299606 1.45295679 4.55202964 -1.375 6.0625 C-2.35210937 6.58972656 -3.32921875 7.11695313 -4.3359375 7.66015625 C-7 9 -7 9 -10 10 C-10.33 9.34 -10.66 8.68 -11 8 C-8.69 6.68 -6.38 5.36 -4 4 C-4 3.34 -4 2.68 -4 2 C-2.68 2 -1.36 2 0 2 C0 1.34 0 0.68 0 0 Z " fill="#326A93" transform="translate(277,292)"/>
<path d="M0 0 C0.66 0 1.32 0 2 0 C2.1799928 5.21979128 1.97094808 9.07262981 0 14 C-0.99 13.67 -1.98 13.34 -3 13 C-2.17812739 8.61667943 -1.09845718 4.32059823 0 0 Z " fill="#24588B" transform="translate(245,375)"/>
<path d="M0 0 C5.45156722 3.27094033 9.61869443 7.41853326 14 12 C13.01 12.33 12.02 12.66 11 13 C9.5 11.625 9.5 11.625 8 10 C8 9.34 8 8.68 8 8 C6.68 8 5.36 8 4 8 C4 6.68 4 5.36 4 4 C2.68 3.67 1.36 3.34 0 3 C0 2.01 0 1.02 0 0 Z " fill="#549BC7" transform="translate(220,179)"/>
<path d="M0 0 C2.64 0 5.28 0 8 0 C8 4.29 8 8.58 8 13 C6.68 12.34 5.36 11.68 4 11 C4.99 8.36 5.98 5.72 7 3 C4.36 3 1.72 3 -1 3 C-0.67 2.01 -0.34 1.02 0 0 Z " fill="#0F4D82" transform="translate(141,172)"/>
<path d="M0 0 C0.33 0 0.66 0 1 0 C0.36934845 5.7809725 -0.65155132 11.3443706 -2 17 C-3.32 17.33 -4.64 17.66 -6 18 C-4.23536928 11.89262558 -2.30442525 5.92566493 0 0 Z " fill="#295B86" transform="translate(390,364)"/>
<path d="M0 0 C0 0.33 0 0.66 0 1 C-13.6332574 5.22323462 -13.6332574 5.22323462 -20 7 C-19 4 -19 4 -17.03125 2.83203125 C-11.03889266 0.41844288 -6.45440733 -0.41641338 0 0 Z " fill="#58A0C9" transform="translate(319,257)"/>
<path d="M0 0 C0.66 0 1.32 0 2 0 C2.33 5.94 2.66 11.88 3 18 C2.01 17.67 1.02 17.34 0 17 C0 11.39 0 5.78 0 0 Z " fill="#4B779E" transform="translate(203,375)"/>
<path d="M0 0 C0.99 0 1.98 0 3 0 C5.875 6.625 5.875 6.625 7 10 C5.02 10.99 5.02 10.99 3 12 C0.60926555 8.17482487 0.44033448 4.40334476 0 0 Z " fill="#1B4B84" transform="translate(407,342)"/>
<path d="M0 0 C0.66 0.66 1.32 1.32 2 2 C6.14509433 2.28602162 6.14509433 2.28602162 10 1 C10.33 2.32 10.66 3.64 11 5 C7.52674819 6.1577506 4.63932552 6.06866652 1 6 C1 5.34 1 4.68 1 4 C0.34 3.67 -0.32 3.34 -1 3 C-0.67 2.01 -0.34 1.02 0 0 Z " fill="#114276" transform="translate(331,388)"/>
<path d="M0 0 C1.32 0.66 2.64 1.32 4 2 C2.11157486 2.87042243 0.21388098 3.72075474 -1.6875 4.5625 C-2.74324219 5.03816406 -3.79898437 5.51382812 -4.88671875 6.00390625 C-8.16633893 7.05322011 -9.75895539 7.00418265 -13 6 C-13 5.67 -13 5.34 -13 5 C-11.35 5 -9.7 5 -8 5 C-8 4.34 -8 3.68 -8 3 C-6.865625 2.690625 -5.73125 2.38125 -4.5625 2.0625 C-1.21224901 1.37075469 -1.21224901 1.37075469 0 0 Z " fill="#3C6994" transform="translate(297,284)"/>
<path d="M0 0 C-2.70491803 6.85245902 -2.70491803 6.85245902 -5 8 C-5 7.01 -5 6.02 -5 5 C-7.31 5 -9.62 5 -12 5 C-11 3 -11 3 -9.00390625 2.1484375 C-8.19824219 1.89320313 -7.39257812 1.63796875 -6.5625 1.375 C-5.75941406 1.11460937 -4.95632813 0.85421875 -4.12890625 0.5859375 C-2 0 -2 0 0 0 Z " fill="#306797" transform="translate(314,263)"/>
<path d="M0 0 C0.33 0.99 0.66 1.98 1 3 C-5.68688919 5.85888741 -10.85234068 6.23852969 -18 5 C-18 4.67 -18 4.34 -18 4 C-16.78441406 3.79503906 -15.56882812 3.59007812 -14.31640625 3.37890625 C-12.73173486 3.10698039 -11.14710137 2.83483357 -9.5625 2.5625 C-8.76005859 2.42779297 -7.95761719 2.29308594 -7.13085938 2.15429688 C-3.24528697 1.79732776 -3.24528697 1.79732776 0 0 Z " fill="#3E7299" transform="translate(345,255)"/>
<path d="M0 0 C0.33 1.32 0.66 2.64 1 4 C0.34 4 -0.32 4 -1 4 C-1 4.99 -1 5.98 -1 7 C-0.13375 6.814375 0.7325 6.62875 1.625 6.4375 C5.05152628 5.99332067 7.64212371 6.28045508 11 7 C11 7.33 11 7.66 11 8 C9.23086176 8.22226864 7.45955629 8.42733873 5.6875 8.625 C4.20830078 8.79902344 4.20830078 8.79902344 2.69921875 8.9765625 C0 9 0 9 -3 7 C-1.125 1.125 -1.125 1.125 0 0 Z " fill="#2F8E3D" transform="translate(451,363)"/>
<path d="M0 0 C0.99 0.33 1.98 0.66 3 1 C3.33 2.65 3.66 4.3 4 6 C4.66 6 5.32 6 6 6 C6.33 8.64 6.66 11.28 7 14 C6.01 13.67 5.02 13.34 4 13 C4 11.68 4 10.36 4 9 C3.34 9 2.68 9 2 9 C1.34 6.03 0.68 3.06 0 0 Z " fill="#2D5D89" transform="translate(326,349)"/>
<path d="M0 0 C10.75718016 0.60574413 10.75718016 0.60574413 15 4 C15 4.33 15 4.66 15 5 C8.375 5.125 8.375 5.125 5 4 C4.67 3.34 4.34 2.68 4 2 C1.98330173 0.86649466 1.98330173 0.86649466 0 0 Z " fill="#358DC0" transform="translate(181,159)"/>
<path d="M0 0 C2.80844958 2.27771895 3.91735478 3.36197888 4.390625 7.015625 C4.34421875 8.08296875 4.2978125 9.1503125 4.25 10.25 C4.21390625 11.32765625 4.1778125 12.4053125 4.140625 13.515625 C4.09421875 14.33546875 4.0478125 15.1553125 4 16 C1.7655402 11.96707255 1.45503257 8.55032566 1 4 C0.34 4 -0.32 4 -1 4 C-0.67 2.68 -0.34 1.36 0 0 Z " fill="#35628E" transform="translate(81,348)"/>
<path d="M0 0 C0.66 0 1.32 0 2 0 C5 4.38461538 5 4.38461538 5 7 C0.96479403 5.41037341 -3.01811282 3.71767682 -7 2 C-7 1.67 -7 1.34 -7 1 C-4.69 1.33 -2.38 1.66 0 2 C0 1.34 0 0.68 0 0 Z " fill="#306393" transform="translate(222,291)"/>
<path d="M0 0 C0 0.66 0 1.32 0 2 C0.66 2.33 1.32 2.66 2 3 C-1 4 -1 4 -2.9375 4.4375 C-5.14019326 5.03823453 -6.99192674 5.92424647 -9 7 C-9.99 6.34 -10.98 5.68 -12 5 C-10.56705502 4.15885829 -9.12845595 3.32734313 -7.6875 2.5 C-6.88699219 2.0359375 -6.08648437 1.571875 -5.26171875 1.09375 C-3 0 -3 0 0 0 Z " fill="#3D91C6" transform="translate(308,162)"/>
<path d="M0 0 C0 0.99 0 1.98 0 3 C-2.83269666 4.41634833 -5.47466438 4.3463005 -8.625 4.5625 C-9.81351562 4.64628906 -11.00203125 4.73007813 -12.2265625 4.81640625 C-13.14179688 4.87699219 -14.05703125 4.93757812 -15 5 C-12.56158876 2.56158876 -10.81433885 2.23847249 -7.5 1.375 C-6.5203125 1.11460937 -5.540625 0.85421875 -4.53125 0.5859375 C-2 0 -2 0 0 0 Z " fill="#4493C5" transform="translate(328,155)"/>
<path d="M0 0 C6.01077136 1.63040815 12.01663928 3.27147357 18 5 C18 5.33 18 5.66 18 6 C15.03 6 12.06 6 9 6 C9 5.34 9 4.68 9 4 C7.02 4 5.04 4 3 4 C3 3.34 3 2.68 3 2 C2.01 2 1.02 2 0 2 C0 1.34 0 0.68 0 0 Z " fill="#EEA66F" transform="translate(269,93)"/>
<path d="M0 0 C5.445 1.485 5.445 1.485 11 3 C11 4.32 11 5.64 11 7 C11.66 7.33 12.32 7.66 13 8 C9.18008284 8 7.88692091 6.76738773 4.8125 4.5625 C3.91144531 3.92441406 3.01039063 3.28632813 2.08203125 2.62890625 C1.39496094 2.09136719 0.70789063 1.55382812 0 1 C0 0.67 0 0.34 0 0 Z " fill="#529FCC" transform="translate(214,271)"/>
<path d="M0 0 C0.99 0 1.98 0 3 0 C2.34 6.6 1.68 13.2 1 20 C0.67 20 0.34 20 0 20 C0 13.4 0 6.8 0 0 Z " fill="#154D7E" transform="translate(194,343)"/>
<path d="M0 0 C1.0625 1.8125 1.0625 1.8125 2 4 C1.67 4.99 1.34 5.98 1 7 C-0.65 7.33 -2.3 7.66 -4 8 C-4 6.68 -4 5.36 -4 4 C-3.34 4 -2.68 4 -2 4 C-2 3.01 -2 2.02 -2 1 C-1.34 0.67 -0.68 0.34 0 0 Z " fill="#14538A" transform="translate(350,250)"/>
<path d="M0 0 C-1.75 2.0625 -1.75 2.0625 -5 4 C-9.05744319 4.05803885 -12.98966561 3.58843822 -17 3 C-17 2.67 -17 2.34 -17 2 C-11.23918159 0.7017874 -5.91260345 -0.25706972 0 0 Z " fill="#F09C67" transform="translate(245,92)"/>
<path d="M0 0 C0.33 0 0.66 0 1 0 C1 7.59 1 15.18 1 23 C0.01 23.33 -0.98 23.66 -2 24 C-2 23.01 -2 22.02 -2 21 C-1.34 21 -0.68 21 0 21 C0 14.07 0 7.14 0 0 Z " fill="#2B80B7" transform="translate(344,229)"/>
<path d="M0 0 C0 0.66 0 1.32 0 2 C-1.390625 3.2890625 -1.390625 3.2890625 -3.25 4.625 C-3.85328125 5.07101563 -4.4565625 5.51703125 -5.078125 5.9765625 C-7 7 -7 7 -11 7 C-11 6.34 -11 5.68 -11 5 C-9.54462432 4.16151196 -8.08559627 3.32936066 -6.625 2.5 C-5.81289062 2.0359375 -5.00078125 1.571875 -4.1640625 1.09375 C-2 0 -2 0 0 0 Z " fill="#EA9D5C" transform="translate(238,157)"/>
<path d="M0 0 C0.66 0.33 1.32 0.66 2 1 C1.34 2.65 0.68 4.3 0 6 C-0.66 6 -1.32 6 -2 6 C-2 6.66 -2 7.32 -2 8 C-3.32 8 -4.64 8 -6 8 C-5.67 7.01 -5.34 6.02 -5 5 C-4.01 5 -3.02 5 -2 5 C-2 3.68 -2 2.36 -2 1 C-1.34 0.67 -0.68 0.34 0 0 Z " fill="#1A467A" transform="translate(244,349)"/>
<path d="M0 0 C6.875 3.75 6.875 3.75 8 6 C6.68 6 5.36 6 4 6 C4 6.66 4 7.32 4 8 C3.34 8 2.68 8 2 8 C2.33 6.35 2.66 4.7 3 3 C1.68 3.33 0.36 3.66 -1 4 C-0.67 2.68 -0.34 1.36 0 0 Z " fill="#F09A59" transform="translate(284,132)"/>
<path d="M0 0 C1.98 0 3.96 0 6 0 C6.93423645 3.01031744 7.04449911 3.86650268 6 7 C4.02 4.69 2.04 2.38 0 0 Z " fill="#4698CA" transform="translate(230,283)"/>
<path d="M0 0 C0.79921875 0.00902344 1.5984375 0.01804687 2.421875 0.02734375 C3.02515625 0.03894531 3.6284375 0.05054687 4.25 0.0625 C4.58 0.7225 4.91 1.3825 5.25 2.0625 C-1.185 2.5575 -1.185 2.5575 -7.75 3.0625 C-8.08 2.4025 -8.41 1.7425 -8.75 1.0625 C-5.75519083 0.1901588 -3.11424089 -0.04579766 0 0 Z " fill="#EB853F" transform="translate(249.75,91.9375)"/>
<path d="M0 0 C0.66 0.66 1.32 1.32 2 2 C1.67 3.32 1.34 4.64 1 6 C-2.96 5.67 -6.92 5.34 -11 5 C-11.33 3.68 -11.66 2.36 -12 1 C-11.01 1.495 -11.01 1.495 -10 2 C-10 2.66 -10 3.32 -10 4 C-8.906875 3.814375 -7.81375 3.62875 -6.6875 3.4375 C-3 3 -3 3 0 4 C0 2.68 0 1.36 0 0 Z " fill="#6586AB" transform="translate(126,389)"/>
<path d="M0 0 C0.66 0 1.32 0 2 0 C2 3.63 2 7.26 2 11 C1.01 10.67 0.02 10.34 -1 10 C-0.67 6.7 -0.34 3.4 0 0 Z " fill="#2E763C" transform="translate(440,373)"/>
<path d="M0 0 C2.31 0.66 4.62 1.32 7 2 C6.34 3.32 5.68 4.64 5 6 C3.02 6 1.04 6 -1 6 C-0.34 5.67 0.32 5.34 1 5 C0.67 3.35 0.34 1.7 0 0 Z " fill="#309640" transform="translate(429,365)"/>
<path d="M0 0 C-1.5830577 4.2742558 -4.50568404 6.26531794 -8 9 C-6.36422977 2.2232376 -6.36422977 2.2232376 -4.0625 0.8125 C-2 0 -2 0 0 0 Z " fill="#4B97C6" transform="translate(271,281)"/>
<path d="M0 0 C1.37140038 0.01987537 2.7426453 0.05555764 4.11328125 0.10546875 C4.81517578 0.11900391 5.51707031 0.13253906 6.24023438 0.14648438 C7.96907954 0.18176693 9.6975289 0.23557292 11.42578125 0.29296875 C11.42578125 0.62296875 11.42578125 0.95296875 11.42578125 1.29296875 C2.51578125 2.28296875 2.51578125 2.28296875 -6.57421875 3.29296875 C-3.57421875 0.29296875 -3.57421875 0.29296875 0 0 Z " fill="#60A4CD" transform="translate(330.57421875,252.70703125)"/>
<path d="M0 0 C0.33 0.66 0.66 1.32 1 2 C-4.94 2.495 -4.94 2.495 -11 3 C-11 2.34 -11 1.68 -11 1 C-9.5437328 0.63743142 -8.08488815 0.28520207 -6.625 -0.0625 C-5.40683594 -0.35833984 -5.40683594 -0.35833984 -4.1640625 -0.66015625 C-2 -1 -2 -1 0 0 Z " fill="#2C5D89" transform="translate(236,392)"/>
<path d="M0 0 C2 3 2 3 1.64453125 5.2265625 C1.23267578 6.41378906 1.23267578 6.41378906 0.8125 7.625 C0.55082031 8.42164063 0.28914063 9.21828125 0.01953125 10.0390625 C-1 12 -1 12 -4 13 C-3.52140759 11.39566191 -3.04210442 9.79153584 -2.5625 8.1875 C-2.29566406 7.29417969 -2.02882813 6.40085937 -1.75390625 5.48046875 C-1.19612127 3.64526945 -0.60655425 1.81966274 0 0 Z " fill="#4C7397" transform="translate(86,374)"/>
<path d="M0 0 C0.33 0.99 0.66 1.98 1 3 C1.99 3.33 2.98 3.66 4 4 C3.690625 4.763125 3.38125 5.52625 3.0625 6.3125 C2.32106407 8.18789677 1.63771783 10.08684652 1 12 C0.67 12 0.34 12 0 12 C-0.19573608 10.56359829 -0.38127816 9.12580496 -0.5625 7.6875 C-0.66691406 6.88699219 -0.77132813 6.08648437 -0.87890625 5.26171875 C-1 3 -1 3 0 0 Z " fill="#13548E" transform="translate(307,362)"/>
<path d="M0 0 C0.66 0 1.32 0 2 0 C2.33 4.29 2.66 8.58 3 13 C0 10 0 10 -0.29296875 7.51953125 C-0.25816406 6.62621094 -0.22335938 5.73289062 -0.1875 4.8125 C-0.16042969 3.91144531 -0.13335937 3.01039063 -0.10546875 2.08203125 C-0.07066406 1.39496094 -0.03585938 0.70789063 0 0 Z " fill="#467095" transform="translate(211,352)"/>
<path d="M0 0 C1.4540625 0.0309375 1.4540625 0.0309375 2.9375 0.0625 C2.9375 0.7225 2.9375 1.3825 2.9375 2.0625 C1.2875 2.7225 -0.3625 3.3825 -2.0625 4.0625 C-2.3925 6.3725 -2.7225 8.6825 -3.0625 11.0625 C-3.3925 11.0625 -3.7225 11.0625 -4.0625 11.0625 C-4.08938151 9.41675434 -4.10884123 7.77088587 -4.125 6.125 C-4.13660156 5.20847656 -4.14820313 4.29195313 -4.16015625 3.34765625 C-4.00919455 -0.18484756 -3.60673121 0.07360676 0 0 Z " fill="#3A8045" transform="translate(444.0625,347.9375)"/>
<path d="M0 0 C0 1.65 0 3.3 0 5 C-0.66 5 -1.32 5 -2 5 C-2.66 5.66 -3.32 6.32 -4 7 C-4.66 5.02 -5.32 3.04 -6 1 C-1.125 0 -1.125 0 0 0 Z " fill="#094986" transform="translate(204,342)"/>
<path d="M0 0 C0 0.66 0 1.32 0 2 C-2.31 2.33 -4.62 2.66 -7 3 C-7 3.66 -7 4.32 -7 5 C-7.99 4.67 -8.98 4.34 -10 4 C-9.67 3.01 -9.34 2.02 -9 1 C-6.04335481 -0.4783226 -3.25770263 -0.06032783 0 0 Z " fill="#1D5278" transform="translate(406,343)"/>
<path d="M0 0 C0.33 0.99 0.66 1.98 1 3 C-1.97 5.475 -1.97 5.475 -5 8 C-5.99 7.34 -6.98 6.68 -8 6 C-5.36 4.02 -2.72 2.04 0 0 Z " fill="#366B95" transform="translate(288,274)"/>
<path d="M0 0 C1.875 1.5 1.875 1.5 3 3 C-0.25558265 3 -3.442101 2.75706131 -6.6875 2.5 C-7.86699219 2.4071875 -9.04648437 2.314375 -10.26171875 2.21875 C-11.16535156 2.1465625 -12.06898438 2.074375 -13 2 C-13 1.67 -13 1.34 -13 1 C-4.30434783 -0.39130435 -4.30434783 -0.39130435 0 0 Z " fill="#6BABD4" transform="translate(342,153)"/>
<path d="M0 0 C0.99 0.495 0.99 0.495 2 1 C2 1.66 2 2.32 2 3 C4.64 3 7.28 3 10 3 C10 3.66 10 4.32 10 5 C7.03 5 4.06 5 1 5 C0.67 3.35 0.34 1.7 0 0 Z " fill="#163F66" transform="translate(298,389)"/>
<path d="M0 0 C5.445 1.485 5.445 1.485 11 3 C11 3.66 11 4.32 11 5 C6.55129785 5.39253254 3.85756507 4.15305957 0 2 C0 1.34 0 0.68 0 0 Z " fill="#4B7899" transform="translate(230,362)"/>
<path d="M0 0 C-0.66 1.32 -1.32 2.64 -2 4 C-6 4 -6 4 -8 3 C-8 2.34 -8 1.68 -8 1 C-5.07175348 0.02391783 -3.04386724 -0.08226668 0 0 Z " fill="#2B6592" transform="translate(238,298)"/>
<path d="M0 0 C0.66 0 1.32 0 2 0 C2 0.99 2 1.98 2 3 C2.66 3.33 3.32 3.66 4 4 C3.34 5.65 2.68 7.3 2 9 C1.67 9 1.34 9 1 9 C1 7.35 1 5.7 1 4 C0.34 4 -0.32 4 -1 4 C-1 4.66 -1 5.32 -1 6 C-1.99 5.67 -2.98 5.34 -4 5 C-2.71937515 3.2925002 -1.38232443 1.62626404 0 0 Z " fill="#215B8C" transform="translate(269,289)"/>
<path d="M0 0 C0.66 0.66 1.32 1.32 2 2 C-0.625 6.875 -0.625 6.875 -4 8 C-4.33 6.68 -4.66 5.36 -5 4 C-4.360625 3.71125 -3.72125 3.4225 -3.0625 3.125 C-0.84793921 2.17176549 -0.84793921 2.17176549 0 0 Z " fill="#106097" transform="translate(337,374)"/>
<path d="M0 0 C0.99 0.33 1.98 0.66 3 1 C2.67 4.3 2.34 7.6 2 11 C-0.10814567 6.78370866 -0.17700355 4.60209225 0 0 Z " fill="#2E6594" transform="translate(321,357)"/>
<path d="M0 0 C0 0.66 0 1.32 0 2 C-2.31 2 -4.62 2 -7 2 C-7.33 2.99 -7.66 3.98 -8 5 C-8.66 4.67 -9.32 4.34 -10 4 C-10 3.01 -10 2.02 -10 1 C-6.61981469 -0.04005702 -3.5219721 -0.08004482 0 0 Z " fill="#0F437A" transform="translate(232,351)"/>
<path d="M0 0 C3.9492568 0.55105909 7.34920174 1.38935371 11 3 C11 3.66 11 4.32 11 5 C9.54096742 4.69078116 8.08279278 4.37751201 6.625 4.0625 C5.81289062 3.88847656 5.00078125 3.71445312 4.1640625 3.53515625 C2 3 2 3 0 2 C0 1.34 0 0.68 0 0 Z " fill="#4694C0" transform="translate(186,257)"/>
<path d="M0 0 C2.97 0 5.94 0 9 0 C7.25 2.0625 7.25 2.0625 5 4 C2.8125 3.9375 2.8125 3.9375 1 3 C0.67 2.01 0.34 1.02 0 0 Z " fill="#08477B" transform="translate(316,374)"/>
<path d="M0 0 C1.9451 2.91765 2.45276317 4.62537285 3 8 C1.35 8.33 -0.3 8.66 -2 9 C-1.01 8.67 -0.02 8.34 1 8 C0.649375 7.4225 0.29875 6.845 -0.0625 6.25 C-1.14917407 3.64198224 -0.93065133 2.60582371 0 0 Z " fill="#467399" transform="translate(341,385)"/>
<path d="M0 0 C1.65 0.99 3.3 1.98 5 3 C5.33 2.34 5.66 1.68 6 1 C6.99 1.33 7.98 1.66 9 2 C8.01 3.485 8.01 3.485 7 5 C4.69 4.67 2.38 4.34 0 4 C0 2.68 0 1.36 0 0 Z " fill="#054482" transform="translate(302,387)"/>
<path d="M0 0 C1.9375 0.3125 1.9375 0.3125 4 1 C4.33 1.99 4.66 2.98 5 4 C5.66 4.33 6.32 4.66 7 5 C5.35 5 3.7 5 2 5 C2 4.34 2 3.68 2 3 C1.01 2.67 0.02 2.34 -1 2 C-0.67 1.34 -0.34 0.68 0 0 Z " fill="#024A81" transform="translate(75,367)"/>
<path d="M0 0 C0.66 0 1.32 0 2 0 C2.33 3.3 2.66 6.6 3 10 C2.34 10 1.68 10 1 10 C-0.60725635 6.78548731 -0.05748185 3.56387464 0 0 Z " fill="#386280" transform="translate(120,344)"/>
<path d="M0 0 C0 0.66 0 1.32 0 2 C0.66 2.33 1.32 2.66 2 3 C0.35 3.33 -1.3 3.66 -3 4 C-3 3.34 -3 2.68 -3 2 C-4.32 1.34 -5.64 0.68 -7 0 C-2.25 -1.125 -2.25 -1.125 0 0 Z " fill="#5987A8" transform="translate(243,304)"/>
<path d="M0 0 C2.00720923 0.28674418 4.0085944 0.61866701 6 1 C6 1.66 6 2.32 6 3 C1.99799622 4.60080151 -1.04556236 3.29279692 -5 2 C-4.360625 1.855625 -3.72125 1.71125 -3.0625 1.5625 C-1.02454854 1.18992819 -1.02454854 1.18992819 0 0 Z " fill="#3E749E" transform="translate(201,284)"/>
<path d="M0 0 C3.63 0 7.26 0 11 0 C11 0.33 11 0.66 11 1 C7.04 1.66 3.08 2.32 -1 3 C-0.67 2.01 -0.34 1.02 0 0 Z " fill="#37668F" transform="translate(309,281)"/>
<path d="M0 0 C1.32 0 2.64 0 4 0 C3 3 3 3 -0.0625 4.6875 C-1.031875 5.120625 -2.00125 5.55375 -3 6 C-3 5.01 -3 4.02 -3 3 C-2.34 3 -1.68 3 -1 3 C-0.67 2.01 -0.34 1.02 0 0 Z " fill="#569DCA" transform="translate(279,272)"/>
<path d="M0 0 C0.66 0 1.32 0 2 0 C2.185625 1.7015625 2.185625 1.7015625 2.375 3.4375 C2.684375 5.2009375 2.684375 5.2009375 3 7 C3.66 7.33 4.32 7.66 5 8 C4.67 8.66 4.34 9.32 4 10 C2.68 9.34 1.36 8.68 0 8 C0 5.33333333 0 2.66666667 0 0 Z " fill="#2189CA" transform="translate(204,258)"/>
<path d="M0 0 C0.66 0.33 1.32 0.66 2 1 C-0.23407889 4.35111834 -1.26215824 5.81553956 -5.25 6.8125 C-6.61125 6.9053125 -6.61125 6.9053125 -8 7 C-5.42215154 4.35247996 -3.08351902 2.05567935 0 0 Z " fill="#EBA566" transform="translate(213,133)"/>
<path d="M0 0 C2.475 0.99 2.475 0.99 5 2 C4.67 2.66 4.34 3.32 4 4 C1.4375 4.625 1.4375 4.625 -1 5 C-1 1 -1 1 0 0 Z " fill="#035D96" transform="translate(306,385)"/>
<path d="M0 0 C0.99 0.33 1.98 0.66 3 1 C2.34 2.98 1.68 4.96 1 7 C-0.98 7 -2.96 7 -5 7 C-5 6.67 -5 6.34 -5 6 C-3.35 6 -1.7 6 0 6 C0 4.02 0 2.04 0 0 Z " fill="#528E5B" transform="translate(462,365)"/>
<path d="M0 0 C0.66 0.33 1.32 0.66 2 1 C2 2.65 2 4.3 2 6 C1.34 6 0.68 6 0 6 C0 6.99 0 7.98 0 9 C-0.66 9 -1.32 9 -2 9 C-1.125 1.125 -1.125 1.125 0 0 Z " fill="#154B78" transform="translate(396,349)"/>
<path d="M0 0 C1.51400391 0.01740234 1.51400391 0.01740234 3.05859375 0.03515625 C4.07050781 0.04417969 5.08242188 0.05320312 6.125 0.0625 C7.29869141 0.07990234 7.29869141 0.07990234 8.49609375 0.09765625 C8.16609375 1.41765625 7.83609375 2.73765625 7.49609375 4.09765625 C7.16609375 3.43765625 6.83609375 2.77765625 6.49609375 2.09765625 C2.35515677 1.88795066 2.35515677 1.88795066 -1.50390625 3.09765625 C-2.16390625 2.43765625 -2.82390625 1.77765625 -3.50390625 1.09765625 C-2.50390625 0.09765625 -2.50390625 0.09765625 0 0 Z " fill="#396887" transform="translate(350.50390625,342.90234375)"/>
<path d="M0 0 C1.29585916 0.42492126 2.5866044 0.86545882 3.875 1.3125 C4.59429687 1.55613281 5.31359375 1.79976562 6.0546875 2.05078125 C8 3 8 3 10 6 C8.68 6 7.36 6 6 6 C6 5.34 6 4.68 6 4 C5.071875 3.7834375 5.071875 3.7834375 4.125 3.5625 C2 3 2 3 0 2 C0 1.34 0 0.68 0 0 Z " fill="#EAA563" transform="translate(262,157)"/>
<path d="M0 0 C0.99 0.33 1.98 0.66 3 1 C3 1.99 3 2.98 3 4 C4.32 4.33 5.64 4.66 7 5 C7 5.33 7 5.66 7 6 C4.625 6.1875 4.625 6.1875 2 6 C0 3 0 3 0 0 Z " fill="#0B4372" transform="translate(114,387)"/>
<path d="M0 0 C1.65 0.33 3.3 0.66 5 1 C5 1.66 5 2.32 5 3 C2.69 3.66 0.38 4.32 -2 5 C-1.34 3.35 -0.68 1.7 0 0 Z " fill="#3A6387" transform="translate(214,379)"/>
<path d="M0 0 C0.66 0 1.32 0 2 0 C2 2.64 2 5.28 2 8 C1.34 8 0.68 8 0 8 C-0.79953138 4.71303767 -1.09658936 3.28976808 0 0 Z " fill="#48759A" transform="translate(245,375)"/>
<path d="M0 0 C0.99 0.33 1.98 0.66 3 1 C3.6875 3.0625 3.6875 3.0625 4 5 C3.34 5 2.68 5 2 5 C1.67 5.66 1.34 6.32 1 7 C0.34 5.02 -0.32 3.04 -1 1 C-0.67 0.67 -0.34 0.34 0 0 Z " fill="#3191CA" transform="translate(256,290)"/>
<path d="M0 0 C2.97 0.33 5.94 0.66 9 1 C9.33 1.99 9.66 2.98 10 4 C6.7 3.01 3.4 2.02 0 1 C0 0.67 0 0.34 0 0 Z " fill="#446B9B" transform="translate(205,288)"/>
<path d="M0 0 C3.16115776 1.36983503 3.9927092 1.9890638 6 5 C5.01 5 4.02 5 3 5 C3 4.34 3 3.68 3 3 C1.02 3 -0.96 3 -3 3 C-2.01 2.01 -1.02 1.02 0 0 Z " fill="#2E6596" transform="translate(222,283)"/>
<path d="M0 0 C2.52588702 2.36292656 3.88820837 3.66462511 5 7 C2.36 6.34 -0.28 5.68 -3 5 C-2.01 3.35 -1.02 1.7 0 0 Z " fill="#F19C58" transform="translate(255,169)"/>
<path d="M0 0 C0.99 0.33 1.98 0.66 3 1 C3 1.66 3 2.32 3 3 C0.04335481 4.4783226 -2.74229737 4.06032783 -6 4 C-3 2 -3 2 0 2 C0 1.34 0 0.68 0 0 Z " fill="#6695AE" transform="translate(425,390)"/>
<path d="M0 0 C2.97 0 5.94 0 9 0 C9.33 0.66 9.66 1.32 10 2 C6.18510326 3.46726798 3.70988378 2.43336419 0 1 C0 0.67 0 0.34 0 0 Z " fill="#154F80" transform="translate(185,371)"/>
<path d="M0 0 C0.66 0 1.32 0 2 0 C2.625 2.8125 2.625 2.8125 3 6 C2.01 7.485 2.01 7.485 1 9 C0.34 8.67 -0.32 8.34 -1 8 C-0.67 5.36 -0.34 2.72 0 0 Z " fill="#064172" transform="translate(73,357)"/>
<path d="M0 0 C0.99 0.33 1.98 0.66 3 1 C4.37001429 4.1967 3.8252404 6.69903842 3 10 C2.67 10 2.34 10 2 10 C1.34 6.7 0.68 3.4 0 0 Z " fill="#659B6C" transform="translate(447,347)"/>
<path d="M0 0 C2.31 0.66 4.62 1.32 7 2 C6.01 2.99 5.02 3.98 4 5 C3.01 4.67 2.02 4.34 1 4 C0.3125 1.9375 0.3125 1.9375 0 0 Z " fill="#326E95" transform="translate(71,343)"/>
<path d="M0 0 C0.66 0 1.32 0 2 0 C2 1.98 2 3.96 2 6 C0.35 5.67 -1.3 5.34 -3 5 C-1.625 2.5 -1.625 2.5 0 0 Z " fill="#0C4E86" transform="translate(301,280)"/>
<path d="M0 0 C1.485 0.99 1.485 0.99 3 2 C3 2.99 3 3.98 3 5 C1.02 5.99 1.02 5.99 -1 7 C-0.67 4.69 -0.34 2.38 0 0 Z " fill="#F19B56" transform="translate(199,122)"/>
<path d="M0 0 C-0.625 1.9375 -0.625 1.9375 -2 4 C-5.125 4.75 -5.125 4.75 -8 5 C-8 4.34 -8 3.68 -8 3 C-2.25 0 -2.25 0 0 0 Z " fill="#ED9A5D" transform="translate(205,103)"/>
<path d="M0 0 C-0.33 0.99 -0.66 1.98 -1 3 C-3.64 3.33 -6.28 3.66 -9 4 C-3.7826087 0 -3.7826087 0 0 0 Z " fill="#EE9B62" transform="translate(214,99)"/>
<path d="M0 0 C1.32 1.65 2.64 3.3 4 5 C3.01 5.99 2.02 6.98 1 8 C0 7 0 7 -0.0625 3.4375 C-0.041875 2.303125 -0.02125 1.16875 0 0 Z " fill="#356B8E" transform="translate(120,373)"/>
<path d="M0 0 C0.66 0 1.32 0 2 0 C2.1875 2.875 2.1875 2.875 2 6 C1.01 6.66 0.02 7.32 -1 8 C-0.67 5.36 -0.34 2.72 0 0 Z " fill="#2D5F87" transform="translate(305,367)"/>
<path d="M0 0 C2.31 0 4.62 0 7 0 C7 0.99 7 1.98 7 3 C6.01 3 5.02 3 4 3 C3.67 3.99 3.34 4.98 3 6 C2.814375 5.071875 2.814375 5.071875 2.625 4.125 C2.12802644 1.80879168 2.12802644 1.80879168 0 0 Z " fill="#467BA6" transform="translate(69,354)"/>
<path d="M0 0 C2 3 2 3 2 6 C0.35 5.67 -1.3 5.34 -3 5 C-2.01 3.35 -1.02 1.7 0 0 Z " fill="#5D7E98" transform="translate(258,302)"/>
<path d="M0 0 C0 1.65 0 3.3 0 5 C-0.99 5 -1.98 5 -3 5 C-3 4.34 -3 3.68 -3 3 C-3.66 3 -4.32 3 -5 3 C-5 2.34 -5 1.68 -5 1 C-1.125 0 -1.125 0 0 0 Z " fill="#3F94C9" transform="translate(245,292)"/>
<path d="M0 0 C1.65 1.32 3.3 2.64 5 4 C3.35 4.66 1.7 5.32 0 6 C0 4.02 0 2.04 0 0 Z " fill="#366E9B" transform="translate(217,278)"/>
<path d="M0 0 C0.33 0.66 0.66 1.32 1 2 C3.02463255 2.65213292 3.02463255 2.65213292 5 3 C4.67 3.99 4.34 4.98 4 6 C2.68 5.34 1.36 4.68 0 4 C0 2.68 0 1.36 0 0 Z " fill="#25547D" transform="translate(138,272)"/>
<path d="M0 0 C2.97 0.99 5.94 1.98 9 3 C7.02 3.99 7.02 3.99 5 5 C2.25 3.75 2.25 3.75 0 2 C0 1.34 0 0.68 0 0 Z " fill="#2A6491" transform="translate(151,254)"/>
<path d="M0 0 C2.79872437 2.52788007 4.45773019 4.20411134 5 8 C3.68 7.67 2.36 7.34 1 7 C0.67 4.69 0.34 2.38 0 0 Z " fill="#58A2D0" transform="translate(242,203)"/>
<path d="M0 0 C3.37503669 1.1858237 5.64722731 2.27573689 8 5 C7.01 5.495 7.01 5.495 6 6 C3.875 5.0625 3.875 5.0625 2 4 C2 3.34 2 2.68 2 2 C1.34 2 0.68 2 0 2 C0 1.34 0 0.68 0 0 Z " fill="#549CC6" transform="translate(201,166)"/>
<path d="M0 0 C4.455 0.99 4.455 0.99 9 2 C9 2.33 9 2.66 9 3 C6.36 3 3.72 3 1 3 C0.67 2.01 0.34 1.02 0 0 Z " fill="#509AC6" transform="translate(172,155)"/>
<path d="M0 0 C2.64 0 5.28 0 8 0 C7.34 1.32 6.68 2.64 6 4 C5.34 3.34 4.68 2.68 4 2 C2.68 2 1.36 2 0 2 C0 1.34 0 0.68 0 0 Z " fill="#0C77B4" transform="translate(328,155)"/>
<path d="M0 0 C2 1 2 1 2 1 Z " fill="#000000" transform="translate(147,354)"/>
<path d="M0 0 C2 1 2 1 2 1 Z " fill="#BFFFFF" transform="translate(266,290)"/>
<path d="M0 0 C2 1 2 1 2 1 Z " fill="#4040BF" transform="translate(153,253)"/>
<path d="" fill="#000000" transform="translate(0,0)"/>
<path d="" fill="#FFFFFF" transform="translate(0,0)"/>
<path d="" fill="#0000FF" transform="translate(0,0)"/>
<path d="" fill="#FFFFFF" transform="translate(0,0)"/>
<path d="" fill="#00FFFF" transform="translate(0,0)"/>
<path d="" fill="#AAAAAA" transform="translate(0,0)"/>
<path d="" fill="#00FFFF" transform="translate(0,0)"/>
<path d="" fill="#808080" transform="translate(0,0)"/>
<path d="" fill="#0000FF" transform="translate(0,0)"/>
<path d="" fill="#000000" transform="translate(0,0)"/>
<path d="" fill="#FFFF80" transform="translate(0,0)"/>
</svg>
